<?xml version="1.0" standalone="no"?>
<!DOCTYPE svg PUBLIC "-//W3C//DTD SVG 20010904//EN"
 "http://www.w3.org/TR/2001/REC-SVG-20010904/DTD/svg10.dtd">
<svg version="1.0" xmlns="http://www.w3.org/2000/svg"
 width="1278.000000pt" height="1278.000000pt" viewBox="0 0 1278.000000 1278.000000"
 preserveAspectRatio="xMidYMid meet">
<metadata>
Created by potrace 1.11, written by Peter Selinger 2001-2013
</metadata>
<g transform="translate(0.000000,1278.000000) scale(0.100000,-0.100000)"
fill="#000000" stroke="none">
<path d="M9570 12177 c-69 -40 -150 -87 -180 -104 -30 -17 -703 -405 -1495
-863 -792 -458 -1458 -842 -1480 -855 -22 -12 -197 -114 -390 -225 -192 -111
-368 -212 -390 -225 -22 -12 -299 -172 -615 -355 -316 -183 -581 -335 -590
-338 -8 -3 -17 -8 -20 -12 -3 -3 -208 -123 -457 -266 -249 -142 -452 -265
-453 -271 0 -18 4 -17 68 19 31 17 66 36 77 42 11 6 22 13 25 17 3 3 21 13 40
22 43 21 70 38 88 54 7 7 24 16 38 19 13 3 24 10 24 14 0 4 17 15 37 24 51 22
97 49 101 59 2 4 10 7 17 7 8 0 20 6 27 14 8 7 43 28 78 47 36 19 71 40 78 47
7 6 18 12 23 12 6 0 17 7 26 15 8 8 19 13 24 10 5 -4 9 -2 9 2 0 5 22 20 50
34 27 13 50 27 50 30 0 4 15 12 33 20 17 7 34 16 37 19 5 7 73 46 145 84 22
12 43 26 47 31 4 6 8 6 8 2 0 -5 7 -1 16 7 8 9 21 16 27 16 7 0 30 14 51 30
21 16 43 27 47 24 5 -3 9 0 9 5 0 6 7 11 15 11 8 0 15 4 15 8 0 5 16 14 35 22
19 8 35 17 35 20 0 8 72 44 83 42 4 -1 7 3 7 8 0 6 7 10 15 10 8 0 15 3 15 8
0 4 31 23 68 42 37 19 69 37 72 40 6 6 39 25 85 49 16 9 35 22 43 29 7 7 18
10 23 7 5 -4 9 -2 9 2 0 8 9 14 66 43 16 8 31 17 34 21 3 3 12 9 20 12 8 4 33
19 55 32 22 14 56 33 75 41 19 9 37 19 40 23 3 3 19 13 35 21 17 8 32 17 35
21 10 11 169 99 180 99 5 0 10 5 10 10 0 6 4 10 10 10 5 0 34 15 63 34 29 19
69 41 88 50 49 24 93 50 97 59 2 4 7 7 12 7 4 0 41 20 82 45 42 25 80 45 87
45 6 0 11 5 11 11 0 5 5 7 10 4 6 -3 10 -2 10 4 0 6 11 13 25 17 14 3 25 10
25 15 0 5 6 9 14 9 7 0 19 7 26 15 7 8 16 12 21 9 5 -3 9 -1 9 3 0 5 26 22 58
38 31 17 63 36 70 43 7 6 20 12 27 12 7 0 20 6 27 13 14 13 43 30 93 56 16 9
32 18 35 21 3 3 19 12 35 20 17 8 45 25 63 38 17 14 32 20 32 16 0 -5 4 -4 8
1 8 12 34 28 82 52 19 9 37 20 40 23 3 3 22 15 43 26 73 36 77 39 77 46 0 5 5
8 11 8 6 0 23 9 39 20 15 11 30 17 34 13 3 -3 6 -1 6 5 0 7 6 12 14 12 8 0 21
6 28 13 7 6 27 19 43 27 17 8 44 25 61 37 17 13 34 20 37 16 4 -3 7 -2 7 4 0
9 25 24 55 33 6 2 16 10 23 17 7 7 20 13 28 13 8 0 14 3 14 8 0 4 15 13 33 21
17 8 34 17 37 21 5 7 71 45 145 84 22 12 58 33 80 47 22 15 50 29 63 33 12 4
22 11 22 16 0 5 16 14 35 21 19 7 35 17 35 22 0 4 5 5 10 2 6 -3 10 -2 10 4 0
6 11 13 25 17 14 3 25 10 25 15 0 5 6 9 14 9 7 0 19 7 26 15 7 8 16 12 21 9 5
-3 9 -1 9 4 0 9 50 37 63 34 4 -1 7 2 7 7 0 5 12 14 28 20 30 12 46 21 108 63
23 15 44 24 48 21 3 -3 6 -2 6 3 0 5 26 23 58 39 31 17 60 34 64 40 5 7 8 7 8
0 0 -6 3 -6 8 0 8 12 146 95 157 95 4 0 13 7 22 15 8 8 19 13 24 10 5 -4 9 -1
9 4 0 6 7 11 15 11 8 0 15 5 15 10 0 6 5 10 11 10 6 0 22 9 36 20 14 11 29 17
34 14 5 -3 9 -1 9 3 0 5 21 20 47 33 26 14 53 30 60 37 7 6 23 15 36 19 12 4
24 9 27 13 5 6 33 23 85 50 16 9 35 22 43 28 7 7 24 16 38 19 13 3 24 9 24 13
0 3 15 12 33 20 17 8 46 24 62 36 17 13 59 38 95 56 36 19 67 37 70 40 3 3 37
23 75 44 105 57 108 59 123 73 7 6 21 12 30 12 15 0 15 2 2 10 -8 5 -17 10
-20 10 -3 0 -61 -33 -130 -73z"/>
<path d="M8320 10699 c-932 -539 -1710 -988 -1727 -997 -18 -9 -275 -158 -572
-329 -297 -172 -544 -313 -549 -313 -6 0 -12 -4 -14 -8 -1 -4 -365 -217 -808
-472 -443 -254 -811 -469 -819 -476 -29 -26 -4 -23 50 7 29 16 62 32 72 36 9
3 17 8 17 12 0 4 16 13 35 21 19 8 35 17 35 22 0 4 6 8 14 8 8 0 22 7 30 16 9
8 16 12 16 7 0 -4 4 -3 8 2 11 16 102 67 102 58 0 -4 6 -1 13 7 7 8 26 22 42
30 17 8 32 17 35 20 8 8 42 28 80 47 19 9 41 23 48 30 8 7 18 11 23 8 5 -4 9
-1 9 4 0 6 7 11 15 11 8 0 15 3 15 8 0 4 15 13 32 21 18 8 55 29 83 48 27 18
55 33 62 33 7 0 13 4 13 8 0 5 16 14 35 22 19 8 35 18 35 22 0 5 5 6 10 3 6
-3 10 -2 10 3 0 8 33 27 55 31 6 1 19 10 30 20 11 10 35 24 52 32 18 8 33 16
33 20 0 3 16 11 35 19 19 8 35 18 35 24 0 5 3 7 6 3 4 -3 13 1 21 9 8 8 20 11
26 7 7 -3 9 -3 5 2 -4 4 9 17 30 28 20 11 55 31 77 44 22 12 52 28 68 34 15 6
27 15 27 21 0 5 4 7 9 4 5 -4 11 -3 13 2 3 9 88 59 101 61 4 0 15 7 23 16 9 8
22 15 30 15 8 0 14 4 14 8 0 5 16 14 35 22 19 8 35 17 35 22 0 4 5 8 11 8 6 0
23 9 39 20 15 11 30 17 34 13 3 -3 6 -2 6 3 0 5 21 21 48 34 26 14 50 29 53
33 3 5 9 8 13 8 3 -1 30 13 59 31 28 18 66 40 82 48 17 8 32 17 35 21 3 3 22
14 43 25 73 36 77 39 77 47 0 4 5 5 10 2 6 -3 10 -2 10 3 0 5 27 22 60 38 33
16 60 33 60 37 0 5 5 5 10 2 6 -3 10 -2 10 3 0 6 12 15 28 21 31 13 85 43 92
52 8 10 75 43 83 41 4 -1 7 3 7 8 0 6 7 10 15 10 8 0 15 5 15 10 0 6 4 10 10
10 5 0 30 13 56 30 26 16 51 27 55 24 5 -3 9 -1 9 5 0 9 11 16 93 58 17 9 35
21 39 27 5 7 8 7 8 1 0 -6 4 -5 8 1 7 12 49 37 127 78 22 12 42 24 45 27 3 3
20 12 38 20 17 8 32 17 32 21 0 5 5 8 11 8 6 0 23 8 37 18 15 11 52 32 82 48
30 16 58 33 61 38 4 5 12 5 19 1 9 -5 11 -4 6 3 -4 7 3 14 19 18 14 3 25 9 25
13 0 9 72 45 83 43 4 -1 7 2 7 8 0 5 7 10 15 10 8 0 15 3 15 8 0 4 15 13 33
21 17 8 51 27 75 43 23 16 42 25 42 21 0 -4 4 -3 8 3 6 10 89 59 149 88 13 6
23 15 23 19 0 5 5 5 10 2 6 -3 10 -2 10 2 0 5 9 14 21 21 17 11 20 11 14 0 -3
-7 -1 -6 7 3 15 18 60 44 71 41 4 -1 7 3 7 9 0 5 5 7 10 4 6 -3 10 -1 10 4 0
6 7 11 15 11 8 0 15 3 15 8 0 4 15 13 33 21 17 8 39 20 47 27 8 7 22 14 30 16
8 2 19 8 25 14 5 6 39 27 75 46 36 19 81 45 100 57 19 12 43 24 53 27 9 4 17
10 17 14 0 5 10 12 23 16 12 3 34 15 48 25 14 10 29 16 33 12 3 -3 6 -1 6 5 0
7 7 12 15 12 8 0 15 5 15 10 0 6 4 10 10 10 5 0 44 20 86 45 41 25 78 45 81
45 2 0 11 7 20 15 8 8 19 13 24 10 5 -4 9 -1 9 4 0 6 7 11 15 11 8 0 15 4 15
10 0 5 3 9 8 8 4 -1 25 9 47 23 22 14 60 36 85 49 25 14 52 30 62 38 9 7 24
15 33 16 9 1 20 7 23 12 7 10 38 28 87 53 17 8 32 17 35 20 3 3 19 13 35 21
17 8 53 29 82 47 29 18 55 33 58 33 4 0 25 13 48 28 23 15 56 34 72 42 17 8
37 20 45 26 8 7 22 14 30 16 8 2 22 10 32 19 10 8 39 26 65 39 27 13 54 30 61
37 8 7 18 11 23 8 5 -4 9 -1 9 4 0 6 5 11 11 11 6 0 25 11 43 25 18 14 36 22
39 18 4 -3 7 -2 7 3 0 5 26 23 58 39 31 17 59 33 62 36 3 3 20 12 38 20 17 8
32 16 32 20 0 3 16 11 35 19 19 8 35 16 35 20 0 3 27 19 60 35 60 30 75 45 43
44 -10 0 -781 -441 -1713 -980z"/>
<path d="M10104 11414 c-21 -15 -42 -31 -45 -36 -10 -16 10 -87 34 -121 41
-59 79 -72 122 -43 40 27 45 35 45 74 0 43 -22 38 -31 -7 -10 -50 -23 -58 -64
-38 -23 11 -35 24 -35 37 0 12 5 18 10 15 6 -3 10 -2 10 3 0 5 17 17 38 27 47
23 46 52 -1 80 -18 10 -35 22 -38 27 -3 5 -23 -3 -45 -18z m60 -46 c8 -14 6
-21 -9 -32 -33 -25 -55 -20 -55 12 0 16 3 32 7 36 12 12 45 2 57 -16z"/>
<path d="M9750 11320 c0 -12 6 -27 13 -34 18 -19 45 10 30 33 -16 25 -43 26
-43 1z"/>
<path d="M9947 11329 c-29 -17 -49 -67 -41 -102 17 -83 73 -130 134 -114 53
13 66 30 62 77 -2 22 -8 40 -12 40 -11 0 -20 -26 -20 -55 0 -14 -7 -26 -19
-30 -23 -7 -71 14 -71 32 0 7 -4 13 -9 13 -13 0 -31 52 -27 75 3 11 5 23 5 28
1 4 13 7 28 7 14 0 24 -3 20 -6 -10 -11 21 -34 37 -28 15 6 14 41 -1 55 -15
13 -68 19 -86 8z"/>
<path d="M9797 11232 c-10 -10 -14 -22 -10 -27 5 -4 -4 -5 -18 -2 -19 5 -33 1
-49 -13 -13 -11 -27 -20 -32 -20 -5 0 -18 -8 -29 -19 -16 -14 -17 -20 -7 -29
7 -6 17 -10 22 -9 15 3 78 -124 72 -146 -4 -16 -1 -18 22 -12 49 12 82 55 43
55 -21 0 -50 36 -70 87 -14 34 -9 53 15 53 8 0 19 11 24 25 5 14 14 25 20 25
30 0 94 -103 88 -143 -2 -18 1 -21 22 -19 23 3 50 26 50 43 0 4 -8 9 -17 11
-10 3 -31 32 -48 64 -28 55 -59 94 -75 94 -4 0 -14 -8 -23 -18z"/>
<path d="M10332 11105 c-9 -7 -49 -30 -88 -51 -39 -22 -102 -58 -140 -80 -38
-23 -94 -55 -124 -70 -30 -16 -57 -32 -60 -35 -10 -12 -167 -99 -178 -99 -7 0
-12 -3 -12 -8 0 -4 -15 -14 -32 -21 -18 -8 -39 -21 -46 -28 -7 -7 -20 -13 -28
-13 -8 0 -14 -3 -14 -7 0 -5 -30 -24 -67 -43 -37 -19 -73 -40 -80 -47 -7 -6
-23 -15 -36 -19 -12 -4 -24 -10 -27 -14 -8 -11 -166 -100 -178 -100 -6 0 -12
-4 -14 -8 -4 -12 -162 -102 -176 -102 -7 0 -12 -4 -12 -9 0 -5 -15 -14 -32
-22 -18 -7 -35 -16 -38 -19 -9 -12 -167 -100 -178 -100 -7 0 -12 -4 -12 -9 0
-5 -15 -14 -32 -22 -18 -7 -35 -16 -38 -19 -9 -12 -167 -100 -178 -100 -7 0
-12 -4 -12 -9 0 -5 -15 -14 -32 -22 -18 -7 -35 -16 -38 -19 -8 -12 -166 -100
-178 -100 -6 0 -12 -4 -14 -8 -4 -12 -162 -102 -176 -102 -7 0 -12 -4 -12 -9
0 -5 -15 -14 -32 -22 -18 -7 -35 -16 -38 -19 -9 -12 -167 -100 -178 -100 -7 0
-12 -4 -12 -9 0 -5 -15 -14 -32 -22 -18 -7 -35 -16 -38 -19 -8 -12 -166 -100
-178 -100 -6 0 -12 -4 -14 -9 -4 -10 -231 -141 -246 -141 -6 0 -12 -4 -14 -8
-4 -12 -162 -102 -176 -102 -7 0 -12 -4 -12 -9 0 -5 -15 -14 -32 -22 -18 -7
-35 -16 -38 -20 -5 -7 -93 -58 -150 -86 -19 -10 -41 -23 -48 -30 -6 -6 -22
-15 -35 -19 -12 -4 -24 -10 -27 -14 -8 -11 -166 -100 -178 -100 -6 0 -12 -4
-14 -8 -4 -12 -162 -102 -176 -102 -7 0 -12 -4 -12 -9 0 -5 -15 -14 -32 -22
-18 -7 -35 -16 -38 -19 -9 -12 -167 -100 -178 -100 -7 0 -12 -4 -12 -9 0 -5
-15 -14 -32 -22 -18 -7 -35 -16 -38 -19 -9 -12 -167 -100 -178 -100 -7 0 -12
-4 -12 -9 0 -5 -15 -14 -32 -22 -18 -7 -35 -16 -38 -19 -8 -12 -166 -100 -178
-100 -6 0 -12 -4 -14 -8 -4 -12 -162 -102 -176 -102 -7 0 -12 -4 -12 -9 0 -5
-15 -14 -32 -22 -18 -7 -35 -16 -38 -19 -9 -12 -167 -100 -178 -100 -7 0 -12
-4 -12 -9 0 -5 -15 -14 -32 -22 -18 -7 -35 -16 -38 -19 -9 -12 -167 -100 -178
-100 -7 0 -12 -4 -12 -9 0 -5 -15 -14 -32 -22 -18 -7 -35 -16 -38 -19 -8 -12
-166 -100 -178 -100 -6 0 -12 -4 -14 -8 -4 -12 -162 -102 -176 -102 -7 0 -12
-4 -12 -9 0 -5 -15 -14 -32 -22 -18 -7 -35 -16 -38 -19 -7 -9 -165 -100 -174
-100 -12 0 -39 -30 -33 -37 8 -7 67 19 67 30 0 5 4 6 9 3 5 -3 14 1 21 9 7 8
18 15 25 15 7 0 18 6 24 14 6 7 25 16 42 20 17 3 28 10 24 16 -4 6 7 13 24 16
16 4 38 15 47 25 9 11 23 19 31 19 7 0 13 5 13 11 0 5 4 8 9 5 5 -4 11 -3 13
1 1 5 26 19 53 33 28 14 58 33 68 43 10 9 27 17 38 17 11 0 22 6 25 14 3 8 19
18 35 21 16 4 32 12 36 18 5 7 19 18 32 25 13 8 40 23 60 34 20 11 48 29 64
40 15 11 27 16 27 11 0 -4 4 -3 8 3 4 6 27 21 52 34 25 14 52 30 62 38 9 7 24
15 33 16 9 1 20 8 24 15 5 7 10 12 12 10 2 -1 23 9 46 24 23 14 53 29 68 33
15 4 29 13 32 20 3 8 11 14 19 14 8 0 14 5 14 10 0 6 4 10 10 10 5 0 31 13 58
29 26 15 68 40 93 53 84 47 94 53 99 58 4 4 39 24 95 54 11 6 22 14 25 17 3 3
20 12 38 20 17 8 32 18 32 22 0 5 5 5 10 2 6 -3 10 -2 10 4 0 6 11 13 25 17
14 3 25 10 25 16 0 5 5 6 10 3 6 -3 10 -2 10 3 0 5 8 12 18 15 17 6 72 37 82
47 3 3 23 14 44 25 90 46 111 58 116 64 3 4 25 18 50 32 25 13 47 26 50 29 3
3 23 14 45 26 46 24 106 58 150 85 17 10 39 23 50 29 11 5 38 21 60 35 22 13
54 31 70 40 17 8 48 26 70 40 22 13 47 27 55 31 8 4 27 16 42 26 14 10 36 18
47 18 12 0 21 6 21 14 0 15 21 26 51 26 10 0 19 7 19 15 0 8 5 16 10 16 6 1
14 2 18 3 5 0 16 9 26 19 10 9 23 17 30 17 7 0 23 9 36 20 13 11 29 20 37 20
7 0 13 5 13 11 0 5 5 7 10 4 6 -3 10 -2 10 3 0 6 12 13 28 17 15 4 35 15 45
26 10 10 27 19 38 19 11 0 22 7 25 15 4 8 14 15 23 15 9 0 24 9 34 20 9 11 25
20 35 20 11 0 27 9 37 20 10 11 26 20 36 20 10 0 21 5 24 10 4 6 22 17 41 25
19 8 34 19 34 24 0 6 9 11 20 11 11 0 23 6 26 14 3 8 19 18 36 21 16 4 32 13
35 20 2 8 18 17 35 20 16 4 32 13 35 21 3 8 14 14 24 14 11 0 22 7 25 15 4 8
10 12 15 9 5 -3 9 0 9 5 0 6 8 11 18 11 11 0 27 9 37 20 10 11 25 20 34 20 9
0 24 9 34 20 9 11 26 20 37 20 11 0 23 7 26 15 4 8 17 15 30 15 15 0 24 6 24
15 0 9 13 18 31 22 17 3 33 12 36 19 2 7 18 16 34 19 16 4 31 11 35 16 3 5 21
16 40 24 19 8 34 19 34 24 0 6 9 11 20 11 11 0 23 7 26 15 4 8 10 12 15 9 5
-3 9 0 9 5 0 6 8 11 18 11 10 0 25 9 35 20 9 11 26 20 37 20 11 0 23 7 26 15
4 8 15 15 25 15 10 0 28 9 39 20 11 11 26 20 33 20 8 0 22 9 32 20 10 11 27
20 37 20 10 0 21 6 24 14 3 8 19 18 36 21 16 4 32 13 35 21 3 8 13 14 23 14 9
0 25 9 35 20 10 11 26 20 35 20 9 0 25 9 35 20 10 11 25 20 34 20 9 0 24 9 34
20 9 11 28 20 42 20 16 0 25 6 25 15 0 8 8 15 18 15 11 0 27 9 37 20 9 10 20
19 24 18 24 -3 41 4 41 17 0 9 13 18 31 22 17 3 33 12 36 19 3 8 13 14 23 14
9 0 29 9 43 20 14 11 29 20 35 20 5 0 17 9 27 20 10 11 25 20 34 20 9 0 24 9
34 20 9 11 26 20 37 20 11 0 23 7 26 15 4 8 14 15 24 15 9 0 25 9 35 20 10 11
26 20 35 20 9 0 25 9 35 20 10 11 25 20 34 20 9 0 24 9 34 20 9 11 26 20 37
20 11 0 23 7 26 15 4 8 17 15 30 15 15 0 24 6 24 15 0 9 12 18 29 21 17 4 38
15 47 25 9 11 26 19 36 19 10 0 21 6 24 14 3 8 19 18 36 21 16 4 32 13 35 21
3 8 15 14 27 14 12 0 27 9 34 20 7 11 20 20 30 20 10 0 25 9 35 20 9 11 26 20
36 20 11 0 23 5 26 10 4 6 22 17 41 25 19 8 34 19 34 24 0 6 8 11 18 11 10 0
25 9 35 20 9 11 25 20 35 20 10 0 25 9 35 20 9 11 26 20 37 20 11 0 23 7 26
15 4 8 14 15 25 15 10 0 23 8 28 18 12 22 -9 26 -37 7z"/>
<path d="M9571 11099 c-18 -4 -37 -12 -41 -18 -4 -7 -22 -20 -40 -29 -39 -20
-48 -48 -16 -56 20 -5 106 -140 106 -166 0 -5 5 -10 11 -10 7 0 9 -10 7 -25
-7 -34 4 -39 46 -18 40 19 47 38 14 40 -45 4 -50 46 -8 68 54 28 64 78 30 145
-11 22 -30 45 -43 51 -12 7 -24 15 -27 19 -3 3 -20 3 -39 -1z m32 -48 c27 -10
55 -62 52 -94 -1 -12 -3 -28 -4 -34 0 -7 -14 -13 -30 -13 -49 0 -102 88 -84
138 6 14 32 16 66 3z"/>
<path d="M5806 10952 c-2 -1 -27 -5 -57 -8 -30 -3 -65 -8 -79 -11 -14 -3 -34
-6 -45 -8 -11 -1 -33 -7 -48 -14 -15 -6 -31 -10 -35 -9 -12 3 -126 -33 -139
-44 -7 -6 -13 -8 -13 -4 0 3 -22 -3 -49 -14 -27 -10 -52 -16 -55 -13 -3 4 -6
1 -6 -6 0 -7 -4 -9 -10 -6 -5 3 -10 1 -10 -4 0 -6 -3 -10 -7 -9 -5 1 -21 -5
-38 -12 -16 -7 -34 -14 -40 -15 -5 -2 -17 -4 -25 -6 -8 -2 -21 -10 -28 -17 -8
-7 -18 -10 -23 -7 -5 4 -9 1 -9 -4 0 -6 -8 -11 -18 -11 -10 0 -26 -6 -37 -14
-11 -7 -23 -14 -28 -15 -16 -2 -103 -45 -119 -59 -10 -8 -18 -12 -18 -8 0 8
-119 -51 -140 -69 -8 -8 -18 -14 -23 -14 -4 0 -21 -8 -37 -16 -17 -9 -30 -12
-30 -8 0 5 -4 3 -8 -3 -4 -6 -46 -32 -94 -57 -48 -26 -90 -52 -93 -57 -4 -6
-11 -8 -16 -5 -5 4 -9 1 -9 -5 0 -6 -4 -9 -9 -5 -5 3 -12 1 -16 -5 -3 -5 -43
-28 -88 -51 -45 -23 -93 -49 -107 -59 -44 -30 -140 -81 -140 -73 0 4 -7 -2
-15 -13 -8 -10 -15 -15 -15 -11 0 4 -10 -1 -22 -13 -12 -11 -30 -20 -40 -20
-10 0 -18 -4 -18 -10 0 -5 -7 -10 -15 -10 -8 0 -15 -4 -15 -9 0 -8 -37 -24
-52 -22 -5 1 -8 -3 -8 -7 0 -5 -11 -14 -25 -20 -14 -7 -31 -17 -38 -22 -19
-17 -288 -170 -298 -170 -5 0 -9 -4 -9 -9 0 -5 -10 -13 -22 -17 -13 -4 -25
-10 -28 -13 -10 -13 -65 -45 -73 -43 -4 1 -10 -5 -13 -13 -3 -8 -10 -13 -14
-10 -5 3 -16 -2 -24 -11 -9 -8 -16 -13 -16 -9 0 3 -10 -3 -22 -14 -11 -11 -25
-18 -29 -15 -4 2 -12 -4 -18 -13 -5 -10 -13 -17 -18 -17 -13 2 -53 -18 -53
-27 0 -4 -10 -11 -22 -15 -23 -7 -40 -19 -65 -46 -9 -9 -20 -15 -23 -13 -4 3
-15 -4 -25 -15 -10 -11 -26 -20 -37 -20 -10 0 -18 -4 -18 -8 0 -5 -12 -15 -27
-23 -59 -30 -112 -66 -106 -73 3 -3 1 -7 -5 -7 -23 -3 -27 -5 -69 -33 -24 -16
-43 -33 -43 -38 0 -5 -4 -6 -10 -3 -5 3 -10 1 -10 -5 0 -6 -4 -8 -10 -5 -5 3
-10 1 -10 -4 0 -6 -5 -11 -11 -11 -5 0 -47 -26 -92 -57 -45 -31 -95 -66 -112
-77 -16 -12 -31 -24 -33 -28 -2 -5 -10 -8 -18 -8 -8 0 -14 -4 -14 -9 0 -5 -8
-12 -17 -15 -10 -3 -30 -17 -45 -31 -16 -14 -28 -23 -28 -19 0 3 -15 -7 -34
-22 -18 -16 -46 -38 -61 -49 -16 -11 -43 -31 -61 -45 -17 -14 -44 -34 -59 -44
-14 -11 -35 -27 -45 -36 -10 -9 -31 -25 -45 -36 -27 -19 -70 -55 -112 -94 -13
-11 -23 -18 -23 -14 0 4 -12 -6 -28 -22 -15 -16 -32 -31 -37 -34 -14 -6 -39
-28 -91 -77 -24 -23 -44 -39 -44 -36 0 4 -13 -8 -28 -25 -16 -18 -32 -32 -36
-32 -4 0 -30 -22 -57 -50 -27 -27 -49 -47 -49 -45 0 3 -21 -16 -47 -42 -25
-27 -42 -42 -38 -34 4 8 -40 -33 -98 -91 -59 -58 -107 -104 -107 -101 0 2 -12
-10 -28 -29 -15 -18 -30 -35 -35 -36 -9 -4 -13 -9 -102 -108 -38 -43 -81 -90
-95 -104 -69 -73 -65 -54 -35 -210 23 -116 88 -258 190 -409 85 -126 99 -147
127 -182 27 -33 27 -33 65 -20 21 8 104 49 184 92 143 78 166 88 155 70 -6
-10 31 -62 42 -59 4 1 22 -2 39 -6 39 -9 54 -49 41 -109 -11 -51 1 -69 57 -86
56 -16 70 -43 60 -114 -4 -35 -2 -53 10 -70 8 -12 18 -21 20 -19 15 7 46 0 66
-17 21 -17 24 -28 24 -92 l0 -73 49 -18 c27 -9 53 -23 58 -30 5 -7 8 -38 6
-68 -2 -66 8 -100 30 -101 72 -3 97 -33 88 -107 -7 -60 5 -92 35 -92 31 0 79
-29 80 -48 2 -29 2 -56 -2 -82 -3 -27 8 -70 19 -71 46 -4 65 -11 83 -28 19
-18 21 -27 16 -80 -6 -71 8 -97 58 -107 55 -10 69 -34 62 -102 -7 -66 3 -88
43 -96 68 -12 85 -40 75 -121 -8 -58 8 -85 50 -85 12 0 33 -8 46 -19 23 -18
25 -30 18 -125 -2 -33 22 -56 56 -56 12 0 32 -10 44 -21 20 -19 23 -29 19 -78
-7 -72 6 -101 44 -101 18 0 39 -10 54 -25 23 -23 25 -31 19 -80 -8 -70 3 -91
55 -99 50 -8 70 -43 60 -109 -9 -60 5 -84 52 -92 54 -9 72 -39 65 -108 -7 -60
10 -97 40 -92 10 1 30 -4 44 -11 30 -15 40 -48 33 -114 -6 -54 3 -69 42 -76
59 -11 86 -45 74 -99 -13 -64 8 -105 55 -105 12 0 32 -10 44 -22 21 -19 23
-27 17 -80 -7 -67 6 -98 42 -98 57 0 96 -63 73 -121 -14 -38 6 -72 48 -80 18
-4 38 -12 44 -18 14 -14 25 -6 -138 -101 -218 -129 -240 -147 -230 -188 13
-53 164 -352 211 -419 50 -70 190 -217 234 -245 23 -15 32 -15 110 3 47 10
103 21 125 25 22 3 42 8 44 10 5 4 43 -59 231 -388 96 -167 130 -218 144 -218
11 0 59 22 108 50 48 27 92 51 97 52 6 2 53 -71 105 -162 94 -162 95 -165 73
-176 -12 -7 -26 -12 -31 -12 -5 0 -12 -4 -15 -9 -11 -16 -130 -84 -233 -134
-63 -31 -108 -74 -108 -103 0 -10 16 -48 36 -83 20 -36 34 -66 32 -68 -1 -1
-79 -46 -173 -100 -93 -53 -174 -101 -180 -106 -14 -14 -29 -11 -51 9 -10 10
-44 32 -74 48 -46 26 -67 34 -120 49 -118 32 -242 25 -355 -22 -57 -24 -154
-93 -197 -143 -95 -106 -145 -255 -135 -403 9 -135 55 -240 143 -333 118 -122
240 -175 403 -175 89 1 113 5 185 32 167 62 299 210 345 386 12 43 17 206 7
221 -5 8 346 218 374 224 7 2 34 -33 59 -77 l47 -80 45 1 c36 0 65 13 154 66
112 66 886 513 1230 711 105 60 203 121 218 135 45 42 44 62 -7 149 -25 43
-42 81 -38 84 13 11 1573 909 1579 909 9 0 86 -53 95 -65 4 -5 8 -6 8 -1 0 5
6 3 13 -3 14 -11 82 -37 126 -47 14 -4 62 -8 107 -10 418 -16 697 448 489 816
-93 165 -260 268 -445 276 -47 2 -105 -2 -130 -7 -25 -6 -52 -12 -60 -13 -49
-7 -217 -111 -242 -150 -3 -6 -18 -24 -32 -41 -34 -39 -82 -138 -97 -200 -7
-28 -13 -95 -13 -149 l-1 -100 -215 -124 c-118 -68 -233 -134 -255 -147 -90
-51 -640 -369 -780 -450 -285 -165 -324 -187 -334 -181 -5 3 -26 36 -46 72
l-37 66 -39 -5 c-22 -2 -48 -12 -58 -21 -9 -9 -20 -16 -24 -16 -9 0 -112 -64
-115 -73 -2 -4 -8 -5 -13 -1 -5 3 -9 0 -9 -5 0 -6 -7 -11 -15 -11 -8 0 -15 -5
-15 -10 0 -6 -3 -9 -7 -8 -10 3 -105 -52 -114 -65 -4 -5 -12 -8 -19 -5 -14 4
-200 320 -194 329 2 4 42 28 89 55 119 69 119 64 1 268 -53 91 -96 167 -96
169 0 3 24 14 53 27 71 30 114 49 240 109 59 28 114 51 122 51 7 0 15 4 17 8
3 7 138 77 148 77 3 -1 36 16 74 37 38 21 73 38 78 38 4 0 25 10 46 23 20 13
89 49 152 81 63 32 120 62 125 66 10 8 168 92 220 118 17 9 32 18 35 21 3 4
28 18 55 32 28 14 106 59 175 99 69 40 150 86 180 103 30 16 60 33 65 38 9 7
174 101 275 157 25 14 47 28 50 32 3 3 20 12 38 19 17 8 32 16 32 20 0 4 26
20 58 36 31 17 59 33 62 37 3 3 55 36 115 72 116 70 125 75 186 119 21 15 41
27 44 27 7 0 184 120 204 138 7 7 26 21 40 30 24 15 104 75 195 146 84 66 244
219 313 299 48 56 133 186 134 205 4 51 -4 88 -30 147 -16 36 -34 65 -40 65
-5 0 -12 8 -15 18 -6 18 -23 39 -103 126 -29 31 -55 56 -59 56 -4 0 -12 8 -19
17 -10 14 -17 15 -37 6 -22 -10 -26 -7 -52 42 -27 48 -32 52 -62 50 -18 -1
-41 -8 -50 -16 -17 -14 -41 -28 -91 -55 -18 -10 -33 -21 -33 -25 0 -4 -13 -10
-30 -14 -16 -4 -30 -10 -30 -14 0 -4 -24 -19 -52 -35 -29 -15 -80 -43 -113
-63 -33 -19 -80 -47 -105 -61 -25 -14 -58 -34 -75 -44 -16 -10 -40 -22 -52
-27 -11 -5 -24 -15 -28 -21 -3 -5 -10 -8 -15 -5 -5 3 -13 -3 -19 -12 -5 -10
-12 -17 -15 -15 -8 3 -101 -44 -164 -84 -29 -19 -57 -34 -62 -34 -6 0 -10 -4
-10 -10 0 -5 -7 -10 -15 -10 -8 0 -15 -5 -15 -12 0 -6 -3 -8 -7 -5 -3 4 -21
-5 -40 -19 -18 -14 -33 -21 -33 -17 0 4 -4 3 -8 -3 -4 -6 -60 -39 -125 -74
-136 -72 -142 -81 -102 -160 21 -41 24 -55 14 -66 -6 -8 -14 -12 -17 -10 -2 3
-20 -6 -40 -19 -19 -13 -40 -21 -45 -18 -6 3 -7 1 -3 -5 3 -6 -4 -14 -16 -18
-13 -4 -34 -15 -47 -25 -13 -10 -27 -16 -32 -13 -5 3 -9 0 -9 -5 0 -6 -7 -11
-15 -11 -8 0 -15 -4 -15 -10 0 -5 -9 -10 -21 -10 -11 0 -18 -4 -15 -9 5 -7
-23 -20 -42 -21 -1 0 -12 -9 -24 -19 -11 -11 -25 -18 -30 -15 -4 3 -8 0 -8 -5
0 -6 -6 -11 -14 -11 -7 0 -19 -7 -26 -15 -7 -8 -16 -12 -21 -10 -4 3 -11 0
-16 -7 -4 -8 -27 -22 -50 -33 -24 -11 -43 -24 -43 -28 0 -5 -4 -6 -8 -3 -5 3
-18 -4 -30 -14 -12 -11 -25 -20 -30 -20 -5 0 -15 -7 -22 -15 -7 -9 -15 -13
-18 -10 -3 3 -14 -2 -24 -12 -10 -9 -18 -12 -18 -7 0 5 -4 4 -8 -2 -4 -6 -38
-28 -77 -49 -38 -22 -72 -43 -73 -47 -2 -4 -8 -6 -13 -2 -5 3 -9 0 -9 -5 0 -6
-7 -11 -15 -11 -8 0 -15 -5 -15 -11 0 -5 -4 -8 -9 -5 -5 3 -14 -1 -21 -9 -7
-8 -16 -12 -21 -9 -5 3 -12 -2 -15 -11 -4 -9 -13 -14 -20 -11 -8 3 -14 2 -14
-2 0 -11 -99 -39 -177 -51 -57 -9 -338 -6 -443 4 -101 10 -370 12 -416 4 -83
-16 -88 -17 -131 -33 -41 -14 -127 -59 -149 -77 -6 -5 -14 -6 -17 -2 -4 3 -7
1 -7 -5 0 -7 -7 -12 -15 -12 -8 0 -15 -5 -15 -11 0 -5 -4 -7 -10 -4 -5 3 -10
1 -10 -4 0 -6 -7 -11 -15 -11 -8 0 -15 -5 -15 -12 0 -6 -3 -8 -6 -5 -4 3 -18
-3 -32 -13 -13 -11 -31 -20 -38 -20 -8 0 -14 -4 -14 -8 0 -5 -19 -17 -41 -28
l-41 -18 -19 23 c-22 27 -24 44 -8 73 19 35 2 67 -44 87 -54 24 -89 58 -83 79
23 78 14 115 -33 127 -14 4 -40 18 -58 31 l-32 24 14 47 c18 58 7 75 -64 108
-57 27 -71 56 -51 106 17 40 1 71 -45 88 -56 20 -84 48 -79 78 3 15 9 34 14
42 12 22 -15 69 -45 77 -14 3 -25 10 -25 15 0 5 -3 8 -7 7 -5 -2 -19 5 -33 14
-23 17 -23 21 -14 67 13 63 2 85 -51 105 -66 26 -78 44 -65 99 15 56 3 81 -45
98 -19 7 -35 17 -35 22 0 4 -4 6 -9 3 -5 -3 -15 4 -24 17 -12 18 -12 29 -2 64
16 52 3 75 -60 104 -64 30 -71 42 -57 95 15 57 6 75 -50 100 -72 32 -80 46
-64 111 12 50 0 71 -55 94 -69 30 -81 50 -63 101 12 36 12 43 -3 68 -10 17
-31 32 -54 39 -52 16 -80 53 -69 91 5 16 11 34 15 39 11 18 -19 52 -63 71 -71
32 -84 56 -62 114 15 39 -5 71 -55 90 -23 9 -51 26 -60 36 -16 18 -17 25 -6
60 16 54 7 79 -37 97 -20 8 -49 25 -63 37 -25 21 -25 24 -14 68 15 59 4 82
-50 102 -23 9 -51 26 -61 37 -16 18 -17 25 -6 66 15 55 0 87 -45 98 -15 3 -41
17 -56 30 -26 23 -27 27 -17 66 16 57 7 84 -32 99 -82 33 -105 70 -77 122 14
26 -6 78 -30 78 -27 0 -101 53 -101 72 0 10 5 36 12 57 11 35 23 45 113 97 55
33 115 67 134 77 70 38 111 68 158 114 87 86 132 160 285 468 140 280 205 375
314 461 32 25 429 259 609 358 72 40 163 93 217 126 25 15 66 39 90 53 23 13
59 34 78 45 19 12 38 22 42 22 4 0 19 -22 35 -49 34 -61 56 -68 107 -34 38 25
107 66 174 104 17 11 49 29 70 41 20 12 53 30 72 40 19 10 42 23 50 28 8 5 56
33 105 62 50 29 92 55 95 58 3 3 23 14 45 25 22 11 79 43 126 72 47 29 91 53
97 53 7 0 12 5 12 10 0 6 4 10 9 10 15 0 396 221 408 238 10 13 7 25 -17 69
-28 53 -28 55 -10 73 19 19 18 28 -25 180 -8 29 -31 85 -43 108 -7 12 -10 22
-7 22 6 0 -43 80 -61 97 -7 7 -14 16 -16 21 -1 4 -18 18 -36 31 -25 17 -49 24
-89 25 -30 0 -56 0 -57 -2z"/>
<path d="M7620 10835 c7 -8 12 -37 11 -65 0 -38 2 -48 13 -44 9 3 22 -6 33
-23 9 -15 20 -30 23 -33 3 -3 13 -22 22 -42 10 -21 24 -38 33 -38 8 0 15 -4
15 -10 0 -5 13 -2 29 8 27 15 50 72 30 72 -4 0 -11 9 -14 20 -3 11 -13 20 -22
20 -10 0 -13 -6 -9 -16 16 -42 18 -64 4 -64 -14 0 -44 39 -40 53 1 4 -2 7 -7
7 -5 0 -16 12 -26 26 -14 22 -15 30 -5 50 7 13 17 21 22 17 6 -3 8 3 6 13 -2
11 -11 17 -19 15 -8 -2 -22 -6 -31 -8 -12 -4 -23 5 -35 26 -10 17 -24 31 -32
31 -11 0 -11 -3 -1 -15z"/>
<path d="M7491 10821 c-17 -11 -7 -41 13 -41 13 0 86 -111 86 -131 0 -5 3 -9
8 -9 12 0 41 -72 44 -109 3 -33 4 -34 20 -18 9 9 21 17 26 17 5 0 15 7 22 15
10 12 8 16 -12 24 -13 5 -34 29 -47 55 -13 25 -33 55 -45 68 -11 12 -20 25
-20 28 2 9 -41 95 -51 102 -13 10 -27 10 -44 -1z"/>
<path d="M10094 10782 c-14 -9 -34 -46 -44 -82 -6 -20 0 -43 26 -96 48 -101
93 -144 149 -144 23 0 35 7 48 29 37 63 14 142 -54 180 l-39 22 -34 -20 c-47
-29 -52 -27 -53 24 -1 36 3 46 20 51 13 4 23 1 29 -10 5 -9 16 -16 23 -16 21
0 20 56 -1 64 -21 8 -57 7 -70 -2z m112 -152 c35 -35 40 -45 43 -87 2 -41 1
-43 -26 -43 -28 0 -51 18 -72 59 -12 22 -15 74 -4 84 12 13 39 7 59 -13z"/>
<path d="M8830 10670 c-17 -16 -41 -30 -55 -30 -13 0 -30 -6 -37 -13 -7 -7
-30 -23 -50 -35 -23 -14 -35 -28 -32 -37 3 -7 12 -11 19 -9 8 3 24 -15 43 -48
40 -72 48 -98 27 -98 -8 0 -18 7 -21 15 -9 22 -24 18 -24 -6 0 -53 -43 -75
-84 -44 -33 25 -26 42 25 70 34 18 48 32 46 44 -5 30 -34 51 -79 59 l-43 8
-26 -50 c-24 -45 -25 -53 -13 -70 8 -11 14 -30 14 -43 0 -13 8 -24 20 -28 11
-3 20 -10 20 -14 0 -5 13 -14 30 -21 41 -17 120 12 113 41 -6 23 21 36 41 20
11 -9 16 -9 23 2 4 8 17 16 27 18 27 5 31 26 7 34 -25 8 -81 97 -81 130 0 29
25 43 49 28 26 -16 71 -105 67 -134 -3 -23 -1 -25 21 -21 14 3 27 11 30 18 3
8 11 14 19 14 24 0 15 19 -11 26 -14 3 -25 10 -25 15 0 6 -10 23 -21 39 -28
37 -32 103 -6 108 24 5 41 -11 70 -63 15 -26 23 -54 21 -74 -3 -22 0 -31 11
-31 8 0 15 5 15 10 0 6 9 10 20 10 27 0 38 29 17 41 -27 15 -48 40 -42 50 4 5
1 9 -4 9 -6 0 -11 6 -11 14 0 7 -7 19 -15 26 -8 7 -12 17 -8 24 3 6 3 8 -2 4
-4 -4 -14 -1 -22 7 -22 23 -49 18 -83 -15z m-202 -197 c3 -17 -3 -24 -22 -29
-40 -10 -49 3 -37 54 1 2 13 2 29 0 19 -2 28 -9 30 -25z"/>
<path d="M7458 10656 c-26 -19 -22 -43 7 -50 14 -4 25 -12 25 -20 0 -7 9 -23
20 -36 24 -28 27 -85 4 -94 -26 -10 -31 -7 -48 29 -9 19 -21 35 -26 35 -4 0
-11 13 -15 29 -3 16 -13 35 -21 42 -8 6 -14 18 -14 25 0 8 -11 3 -29 -14 l-30
-27 24 -12 c13 -7 38 -40 57 -73 29 -54 46 -69 86 -76 6 -1 12 2 12 6 0 5 25
21 55 35 58 29 71 51 33 57 -14 2 -29 16 -40 36 -9 18 -23 41 -31 50 -8 9 -17
29 -21 45 -7 30 -21 34 -48 13z"/>
<path d="M7296 10561 c-3 -4 -18 -11 -34 -14 -30 -6 -52 -40 -52 -81 0 -38 23
-49 86 -43 68 7 84 2 84 -28 0 -42 -45 -46 -89 -9 -28 23 -31 24 -31 7 0 -10
-5 -24 -11 -30 -7 -7 -12 -24 -13 -39 -1 -39 -29 -53 -64 -34 -46 27 -31 58
46 96 10 5 9 12 -4 33 -23 37 -44 51 -74 51 -80 0 -96 -135 -23 -194 38 -30
69 -37 105 -22 27 12 70 76 50 76 -4 0 -8 10 -9 23 -1 20 0 21 10 4 27 -42 38
-52 43 -39 3 6 14 12 23 12 28 0 71 46 71 75 0 14 -11 37 -25 51 -23 23 -31
25 -77 19 -37 -5 -53 -4 -59 6 -20 33 45 54 75 24 22 -23 29 -1 11 35 -16 30
-29 38 -39 21z m-122 -148 c8 -20 -17 -43 -46 -43 -13 0 -18 8 -18 30 0 26 3
30 29 30 18 0 31 -6 35 -17z"/>
<path d="M8359 10473 c5 -10 7 -40 5 -68 -2 -27 -1 -44 2 -37 8 17 34 15 34
-3 0 -8 4 -15 9 -15 5 0 14 -15 22 -32 14 -37 82 -105 87 -89 2 6 9 11 16 11
7 0 18 11 23 23 13 29 -11 87 -35 87 -12 0 -13 -3 -4 -12 15 -15 16 -68 1 -68
-15 0 -34 24 -64 82 -29 55 -30 58 -11 58 24 0 38 26 22 39 -10 8 -16 9 -21 1
-12 -19 -45 -10 -57 15 -6 14 -17 25 -25 25 -10 0 -11 -5 -4 -17z"/>
<path d="M8243 10462 c-10 -7 -10 -39 0 -49 9 -9 47 8 47 20 0 16 -34 37 -47
29z"/>
<path d="M6830 10430 c-30 -17 -65 -36 -78 -42 -27 -14 -24 -32 6 -36 12 -2
22 -10 22 -18 0 -8 4 -14 9 -14 5 0 15 -15 22 -32 7 -18 19 -39 26 -46 7 -7
13 -22 13 -33 0 -11 6 -22 14 -25 20 -8 39 -58 32 -82 -8 -25 8 -37 26 -19 7
8 26 17 41 21 15 3 27 13 27 21 0 8 -3 14 -7 13 -26 -7 -93 72 -93 111 0 5 18
12 41 16 31 5 45 3 60 -11 10 -9 19 -21 19 -26 0 -5 11 -20 24 -33 19 -19 31
-23 54 -19 37 8 61 46 42 69 -14 17 -34 9 -26 -11 3 -8 0 -14 -7 -14 -17 1
-47 25 -47 39 0 6 -4 11 -8 11 -5 0 -15 11 -22 25 -7 13 -17 22 -22 19 -4 -3
-7 17 -5 45 2 36 -1 51 -10 51 -7 0 -13 7 -13 15 0 8 -16 19 -37 24 -49 14
-40 16 -103 -19z m98 -32 c20 -20 14 -75 -10 -98 -26 -23 -58 -27 -58 -5 0 8
-4 15 -8 15 -11 0 -32 46 -32 70 0 10 6 21 13 23 24 10 83 7 95 -5z"/>
<path d="M9456 10425 c-20 -16 -15 -45 8 -45 8 0 31 -28 51 -62 77 -132 85
-149 85 -180 0 -22 3 -25 23 -20 12 3 32 13 43 22 19 14 20 18 7 36 -7 10 -16
18 -19 16 -12 -7 -34 19 -71 83 -22 39 -44 80 -47 93 -4 12 -11 22 -15 22 -4
0 -13 11 -19 25 -13 29 -20 30 -46 10z"/>
<path d="M8293 10365 c-27 -19 -30 -35 -5 -35 26 0 96 -122 86 -152 -6 -20 20
-26 31 -8 4 6 10 8 15 5 4 -3 13 1 19 9 9 10 4 21 -20 47 -18 19 -38 48 -45
64 -7 17 -23 43 -36 58 -22 26 -24 27 -45 12z"/>
<path d="M9444 10270 c-23 -3 -49 -13 -58 -22 -23 -24 -21 -99 4 -131 11 -14
20 -30 20 -35 0 -8 32 -25 66 -34 5 -2 27 3 47 11 29 12 38 21 43 47 3 18 3
37 -1 43 -12 20 -25 11 -25 -18 0 -36 -22 -55 -55 -47 -32 8 -56 53 -35 66 8
5 18 6 22 4 4 -3 8 -1 8 4 0 5 11 15 25 22 30 16 31 29 7 56 -11 11 -21 24
-23 30 -2 5 -22 7 -45 4z m10 -36 c9 -3 16 -16 16 -29 0 -22 -17 -35 -46 -35
-18 0 -19 56 -1 63 6 3 13 6 14 6 1 1 8 -2 17 -5z"/>
<path d="M10361 10246 c-5 -13 -17 -26 -26 -30 -27 -10 -6 -28 26 -21 25 6 30
2 46 -28 10 -19 35 -64 56 -99 43 -76 45 -86 15 -97 -22 -9 -22 -9 6 -16 20
-6 32 -4 40 6 6 8 24 20 39 27 34 15 31 38 -5 34 -21 -3 -29 4 -47 40 -27 53
-42 78 -59 96 -7 7 -10 18 -7 23 4 5 2 9 -4 9 -5 0 -17 18 -27 40 -20 45 -40
51 -53 16z"/>
<path d="M6629 10173 c-13 -9 -26 -18 -28 -19 -2 -2 4 -15 13 -28 22 -35 31
-96 14 -96 -22 0 -68 46 -68 69 0 25 -11 26 -50 6 -39 -20 -38 -30 6 -51 20
-9 41 -25 47 -36 7 -10 17 -18 24 -18 7 0 13 -4 13 -8 0 -5 11 -15 25 -22 14
-7 25 -21 25 -30 0 -9 5 -21 10 -26 17 -17 0 -45 -24 -42 -17 2 -21 -2 -21
-22 0 -21 5 -26 32 -28 28 -3 33 0 40 25 4 15 6 39 5 53 -4 54 -9 87 -16 99
-5 7 -10 51 -12 98 -1 47 -5 87 -7 89 -2 2 -14 -4 -28 -13z"/>
<path d="M9243 10157 c-59 -35 -65 -56 -33 -97 l20 -25 0 41 c0 42 20 71 40
59 7 -5 9 -37 5 -98 -3 -51 -2 -97 3 -104 9 -14 72 9 72 27 0 5 9 10 19 10 28
0 53 38 41 61 -6 10 -10 27 -10 38 0 13 -6 21 -18 21 -14 0 -17 -7 -14 -40 4
-41 -10 -70 -33 -70 -9 0 -12 27 -11 105 2 122 1 123 -81 72z"/>
<path d="M9040 10121 c0 -11 4 -22 9 -26 5 -3 7 -21 4 -40 -5 -31 -3 -35 16
-35 15 0 26 -11 39 -37 9 -21 25 -47 35 -57 9 -11 17 -23 17 -26 0 -4 10 -12
23 -17 53 -25 88 60 43 105 -16 16 -17 15 -10 -27 6 -38 5 -43 -12 -39 -18 3
-67 74 -79 115 -5 18 -1 24 20 29 36 9 15 32 -24 26 -23 -3 -33 1 -46 22 -20
31 -35 34 -35 7z"/>
<path d="M8921 10096 c-8 -9 -7 -18 3 -31 12 -16 15 -17 33 -4 20 14 20 14 -2
31 -19 14 -25 15 -34 4z"/>
<path d="M6420 10060 c0 -5 -15 -16 -34 -24 -38 -16 -55 -53 -24 -52 11 1 26
-12 36 -29 9 -16 19 -32 22 -35 16 -16 32 -62 27 -78 -3 -14 1 -22 14 -25 12
-3 19 0 19 9 0 8 8 14 18 14 9 0 23 4 31 9 12 8 12 11 0 23 -8 7 -23 13 -33
13 -13 0 -23 10 -29 30 -5 17 -16 38 -24 47 -20 23 -12 52 15 56 23 4 26 10
16 36 -7 17 -54 22 -54 6z"/>
<path d="M7434 10009 c-18 -20 -18 -21 1 -35 10 -8 22 -14 27 -14 4 0 8 -6 8
-14 0 -8 4 -16 8 -18 12 -5 102 -165 102 -183 0 -22 -28 -18 -35 5 -10 31 -41
42 -101 35 -53 -5 -55 -5 -52 17 2 17 11 24 32 26 16 2 33 -1 39 -7 6 -6 17
-11 24 -11 11 0 10 6 -2 29 -8 17 -19 33 -25 36 -17 10 -80 -26 -95 -54 -12
-23 -11 -31 2 -59 18 -37 40 -46 77 -32 15 5 38 9 51 8 20 -2 25 -8 25 -30 0
-39 -39 -48 -77 -18 -26 20 -28 21 -32 4 -2 -10 2 -20 8 -22 6 -2 9 -8 5 -13
-3 -5 0 -9 6 -9 6 0 9 -4 5 -9 -12 -21 15 -19 63 4 28 13 53 33 57 45 7 22 35
28 35 8 1 -9 4 -8 13 2 7 8 25 21 40 28 25 11 27 14 13 27 -8 8 -18 15 -23 15
-4 0 -20 20 -36 45 -27 46 -36 99 -17 110 18 11 46 -4 61 -33 7 -15 22 -39 32
-54 12 -18 17 -39 13 -59 -3 -24 -2 -29 7 -20 6 6 19 11 29 11 14 0 47 38 36
43 -32 16 -48 33 -78 81 -19 32 -43 62 -52 67 -22 12 -68 1 -68 -17 0 -32 -37
-12 -65 36 -16 28 -32 50 -36 50 -3 0 -14 -9 -25 -21z"/>
<path d="M8971 10001 c-26 -20 -20 -51 10 -44 12 4 21 -1 26 -13 3 -11 9 -21
12 -24 20 -17 41 -73 36 -91 -5 -14 -2 -25 6 -30 20 -13 29 -11 29 5 0 7 9 16
20 19 26 7 26 37 0 37 -13 0 -22 9 -26 28 -4 15 -12 32 -19 37 -6 6 -15 22
-18 36 -4 15 -17 33 -30 42 -21 13 -25 13 -46 -2z"/>
<path d="M6243 9966 c-21 -24 -30 -79 -19 -118 14 -47 72 -99 106 -95 64 9
102 55 84 102 -9 22 -24 18 -24 -6 0 -32 -19 -59 -41 -59 -51 0 -77 42 -44 70
8 7 15 9 15 6 0 -4 6 -2 13 4 6 6 21 17 31 24 18 13 18 14 1 44 -25 42 -95 58
-122 28z m76 -35 c20 -13 6 -39 -24 -47 -32 -8 -49 7 -40 35 7 22 39 28 64 12z"/>
<path d="M8838 9925 c-12 -14 -29 -25 -38 -25 -19 0 -40 -19 -40 -37 0 -7 9
-13 20 -13 12 0 20 -7 20 -18 0 -10 9 -25 20 -35 11 -9 20 -25 20 -36 0 -11 5
-21 11 -23 7 -2 9 -13 5 -26 -9 -26 -56 -32 -56 -7 0 8 -4 15 -10 15 -5 0 -13
12 -16 28 -9 34 -63 92 -86 92 -10 0 -27 -9 -38 -20 -24 -24 -50 -26 -50 -5 0
8 -4 15 -8 15 -5 0 -16 16 -25 36 -17 34 -19 35 -39 22 -32 -21 -33 -36 -4
-49 14 -7 26 -18 26 -26 0 -7 4 -13 9 -13 5 0 15 -16 22 -35 7 -19 16 -35 20
-35 4 0 13 -15 20 -32 7 -18 19 -39 26 -46 22 -23 16 -43 -11 -36 -22 5 -25 2
-28 -28 -3 -28 -7 -33 -31 -36 -48 -6 -97 57 -93 118 1 34 48 41 62 10 8 -18
11 -19 28 -7 19 14 19 15 -7 41 -49 48 -108 24 -123 -51 -6 -32 -34 -47 -34
-19 0 16 -27 29 -35 16 -3 -5 -18 -11 -34 -15 -27 -6 -51 -38 -51 -70 0 -7 10
-26 23 -42 13 -15 29 -47 37 -71 14 -45 47 -64 72 -43 7 6 25 20 41 32 17 13
27 30 27 46 0 23 3 25 33 20 49 -8 104 11 111 39 5 20 11 23 30 18 13 -3 27
-1 31 6 4 6 18 15 31 20 13 5 24 14 24 20 0 6 -4 8 -10 5 -5 -3 -10 -1 -10 4
0 6 -6 11 -14 11 -19 0 -66 86 -66 121 0 60 45 49 83 -21 15 -27 27 -60 27
-72 0 -24 20 -63 20 -40 0 6 9 12 20 12 11 0 25 9 32 20 7 11 20 20 30 20 9 0
20 5 23 11 4 5 19 15 33 20 l26 10 -31 28 c-38 34 -73 100 -68 127 2 10 4 23
4 27 2 23 48 -3 74 -41 25 -37 32 -59 36 -115 1 -13 44 4 65 25 15 17 16 22 5
29 -8 5 -20 9 -26 9 -7 0 -13 8 -13 18 0 10 -9 25 -20 35 -11 9 -20 26 -20 36
0 12 -12 26 -32 35 -42 22 -54 20 -80 -9z m-443 -331 c0 -25 -52 -45 -65 -24
-5 8 -5 22 1 32 14 25 64 19 64 -8z m63 -12 c2 -7 -3 -12 -12 -12 -9 0 -16 7
-16 16 0 17 22 14 28 -4z m-5 -73 c26 -41 -41 -70 -78 -33 -20 21 -15 37 16
45 34 10 50 7 62 -12z"/>
<path d="M6120 9882 c-26 -21 -22 -52 8 -52 12 0 23 -13 32 -35 8 -19 17 -35
22 -35 4 0 8 -15 8 -34 0 -43 -35 -61 -56 -30 -8 11 -18 25 -24 32 -6 6 -8 12
-3 12 4 0 -2 7 -13 16 -10 8 -13 12 -5 8 14 -7 -26 55 -43 68 -14 9 -46 -14
-46 -34 0 -10 5 -18 10 -18 15 0 56 -48 77 -92 11 -23 27 -38 42 -41 27 -5 91
18 91 33 0 6 5 10 10 10 6 0 22 7 36 16 18 12 22 20 14 29 -6 7 -19 11 -29 8
-13 -3 -22 4 -31 26 -7 17 -17 31 -22 31 -5 0 -7 4 -4 8 3 5 -5 20 -17 33 -12
13 -20 24 -18 24 3 0 0 8 -5 18 -10 17 -11 17 -34 -1z"/>
<path d="M7221 9861 c-16 -28 10 -47 41 -30 14 8 18 14 10 17 -6 2 -12 10 -12
18 0 21 -28 17 -39 -5z"/>
<path d="M5782 9843 c-7 -3 -25 -17 -39 -31 -21 -21 -27 -38 -31 -85 -5 -85
39 -171 108 -207 29 -16 100 -30 100 -21 0 8 70 35 74 29 2 -1 9 -13 15 -25
15 -29 54 -30 80 -2 15 17 17 27 10 52 -5 17 -16 38 -24 46 -13 14 -15 11 -15
-23 0 -33 -3 -37 -22 -34 -19 2 -23 9 -21 33 5 91 3 113 -12 145 -24 52 -45
86 -45 75 0 -5 -7 1 -16 13 -8 12 -22 22 -30 22 -8 0 -14 5 -14 10 0 10 -94
13 -118 3z m76 -32 c8 -1 33 -21 57 -46 42 -43 65 -93 65 -143 0 -21 -3 -23
-30 -17 -37 8 -60 -8 -60 -42 0 -21 -3 -23 -22 -18 -74 23 -137 155 -109 228
11 28 43 47 71 41 8 -1 21 -3 28 -3z m92 -246 c0 -8 -7 -15 -15 -15 -8 0 -15
7 -15 15 0 8 7 15 15 15 8 0 15 -7 15 -15z"/>
<path d="M7107 9822 c-19 -21 -13 -32 15 -32 16 0 22 -10 16 -26 -2 -3 5 -10
15 -15 24 -14 21 -26 -11 -43 -46 -24 -59 -62 -50 -141 1 -8 5 -15 10 -15 4 0
8 -4 8 -10 0 -15 38 -50 55 -50 8 0 15 -4 15 -9 0 -16 44 2 110 45 36 23 77
45 92 49 15 4 33 13 39 21 10 12 8 18 -10 30 -20 15 -39 44 -75 122 -24 52
-59 52 -87 0 -9 -16 -7 -18 14 -13 19 5 27 0 42 -29 11 -20 23 -36 26 -36 12
0 28 -58 22 -79 -9 -34 -48 -27 -67 12 -30 57 -58 102 -67 105 -5 2 -9 12 -9
22 0 9 -7 23 -14 30 -8 6 -20 27 -26 46 -13 38 -37 45 -63 16z m100 -164 c7
-6 10 -14 7 -19 -3 -5 -1 -9 4 -9 12 0 32 -46 32 -74 0 -27 -19 -46 -40 -42
-35 7 -48 20 -70 66 -22 47 -22 50 -6 75 17 26 43 27 73 3z"/>
<path d="M9840 9830 c0 -5 -9 -10 -20 -10 -11 0 -33 -12 -49 -27 -23 -23 -27
-32 -20 -51 14 -38 38 -55 72 -53 94 8 92 8 92 -24 0 -26 -4 -30 -29 -33 -19
-2 -36 4 -52 19 -32 30 -40 18 -18 -23 34 -60 32 -60 85 -25 59 39 65 72 20
117 -26 27 -31 28 -71 19 -52 -12 -70 -7 -65 18 2 10 4 21 4 26 1 4 15 7 32 7
22 0 32 -5 36 -19 6 -25 33 -16 33 10 0 10 -4 19 -9 19 -5 0 -13 9 -16 20 -7
21 -25 28 -25 10z"/>
<path d="M10672 9762 c-7 -2 -12 -10 -12 -18 0 -8 -7 -17 -15 -20 -25 -10 -18
-35 8 -29 19 5 27 0 42 -29 11 -20 22 -36 25 -36 4 0 12 -16 20 -35 8 -19 18
-35 22 -35 5 0 7 -4 4 -9 -4 -5 -2 -11 3 -13 13 -5 25 -68 12 -68 -6 0 -11 -4
-11 -10 0 -16 19 -12 50 10 15 11 30 17 34 13 3 -3 6 -1 6 5 0 7 7 12 15 12 8
0 15 7 15 15 0 12 -4 13 -25 3 -21 -10 -28 -8 -45 12 -11 13 -20 29 -20 37 0
7 -5 13 -11 13 -5 0 -7 5 -4 10 3 6 1 10 -4 10 -6 0 -11 6 -11 14 0 8 -7 21
-15 29 -8 9 -27 40 -43 69 -15 30 -33 53 -40 50z"/>
<path d="M9650 9734 c-21 -6 -40 -51 -40 -96 0 -43 25 -77 83 -115 33 -21 39
-22 52 -9 9 8 23 17 33 21 25 7 45 70 28 85 -17 13 -26 3 -26 -31 0 -56 -98
-49 -100 8 0 6 20 23 45 37 49 29 54 43 28 75 -18 21 -72 34 -103 25z m67 -50
c7 -19 -21 -44 -49 -44 -13 0 -18 8 -18 30 0 27 3 30 30 30 19 0 33 -6 37 -16z"/>
<path d="M9465 9627 c-25 -32 -35 -60 -35 -97 0 -22 5 -40 11 -40 5 0 7 -4 4
-10 -3 -5 -1 -10 5 -10 6 0 15 -11 20 -24 18 -47 115 -46 146 2 22 34 21 94
-3 126 -42 56 -123 85 -148 53z m86 -44 c30 -35 45 -63 43 -83 0 -8 -2 -23 -2
-32 -3 -25 -38 -32 -71 -12 -36 21 -51 52 -51 104 0 32 4 39 23 43 12 2 25 5
28 6 3 0 16 -11 30 -26z"/>
<path d="M9264 9535 c1 -55 4 -65 18 -65 10 0 28 -17 40 -38 13 -21 29 -47 36
-57 7 -11 15 -27 18 -37 5 -13 12 -14 37 -7 58 16 69 62 26 104 -21 20 -22 20
-15 0 18 -50 19 -75 2 -75 -9 0 -16 7 -16 15 0 8 -6 15 -14 15 -7 0 -19 15
-26 33 -8 17 -20 40 -28 49 -15 18 -9 38 12 38 8 0 16 9 19 20 5 18 2 20 -26
15 -35 -6 -46 -1 -68 32 -15 21 -15 18 -15 -42z"/>
<path d="M7923 9495 c-12 -19 -18 -37 -13 -40 5 -3 11 -1 15 5 11 19 35 10 41
-15 3 -14 10 -25 14 -25 5 0 14 -16 21 -35 7 -19 16 -35 19 -35 3 0 16 -20 30
-44 23 -44 24 -45 5 -65 -18 -21 -18 -21 3 -21 12 0 22 4 22 8 0 5 16 14 35
22 47 18 54 40 12 40 -30 1 -35 7 -100 120 -38 66 -72 120 -75 120 -4 -1 -17
-16 -29 -35z"/>
<path d="M9127 9416 c-15 -34 -15 -36 9 -81 13 -26 22 -51 19 -56 -4 -5 -2 -9
2 -9 5 0 14 -14 20 -30 14 -37 39 -36 89 4 19 15 40 26 47 25 30 -4 37 3 37
34 0 17 -7 40 -14 49 -14 20 -28 14 -19 -8 3 -8 -1 -14 -11 -14 -9 0 -16 7
-16 15 0 8 -4 15 -8 15 -5 0 -14 15 -22 34 -14 37 -45 56 -89 56 -21 0 -31 -7
-44 -34z m90 -22 c3 -8 -2 -23 -11 -32 -20 -20 -49 -6 -54 27 -3 18 2 21 28
21 19 0 33 -6 37 -16z m44 -66 c1 -7 3 -23 4 -36 2 -21 -19 -42 -44 -42 -16 0
-24 46 -11 69 12 23 49 29 51 9z"/>
<path d="M8946 9413 c-3 -4 -1 -12 5 -19 7 -8 9 -32 6 -59 -3 -24 -2 -47 4
-50 5 -4 9 -1 9 4 0 27 22 6 57 -54 47 -79 68 -93 111 -71 31 16 34 32 11 62
-5 6 -7 13 -4 15 2 3 -4 10 -14 16 -14 9 -18 8 -18 -3 0 -8 3 -14 7 -14 16 0
4 -45 -12 -48 -12 -2 -23 9 -35 35 -10 21 -24 44 -30 51 -18 19 -16 39 5 54 9
7 18 21 20 30 2 15 -1 16 -23 8 -40 -15 -54 -12 -61 14 -6 24 -27 40 -38 29z"/>
<path d="M7681 9397 c-15 -15 -14 -27 4 -27 8 0 15 -7 15 -15 0 -8 4 -15 9
-15 5 0 14 -15 22 -32 7 -18 16 -35 20 -38 14 -10 79 -140 79 -159 0 -14 6
-17 25 -14 43 9 60 53 20 53 -22 0 -65 82 -65 123 0 44 31 60 60 30 21 -24 45
-65 42 -75 -1 -5 2 -8 7 -8 6 0 11 -17 13 -37 3 -35 28 -61 28 -30 0 9 9 19
20 22 28 9 26 35 -3 35 -17 0 -29 12 -47 47 -14 26 -31 54 -37 61 -7 7 -13 18
-13 23 0 17 -50 9 -67 -11 -24 -28 -41 -25 -61 10 -9 16 -21 30 -25 30 -5 0
-6 4 -3 8 9 14 -30 32 -43 19z"/>
<path d="M6387 9259 c-27 -21 -27 -22 -11 -41 23 -24 30 -98 10 -98 -8 0 -16
7 -20 15 -3 8 -12 15 -21 15 -9 0 -15 9 -15 24 0 32 -23 39 -60 18 -32 -18
-40 -42 -14 -42 20 0 76 -39 128 -88 32 -30 42 -48 44 -76 3 -37 -12 -48 -35
-25 -15 15 -26 -5 -18 -31 9 -29 75 -29 75 0 0 11 5 20 11 20 7 0 8 7 4 18 -4
9 -9 28 -10 42 -2 14 -4 25 -5 25 -7 0 -27 158 -24 198 1 26 -1 47 -4 47 -4 0
-20 -10 -35 -21z"/>
<path d="M8842 9271 c-24 -15 -44 -75 -38 -113 6 -39 -2 -48 -26 -25 -46 42
-107 45 -131 6 -6 -10 -22 -19 -34 -19 -12 0 -27 -9 -33 -19 -8 -17 -5 -23 20
-38 17 -10 33 -28 36 -40 4 -13 10 -23 14 -23 4 0 13 -15 21 -32 7 -18 17 -36
22 -39 5 -4 14 -29 21 -57 l11 -50 44 22 43 23 -36 17 c-47 22 -48 50 -1 71
28 14 36 25 43 58 4 23 4 44 0 45 -9 4 -11 42 -2 42 3 0 12 -6 19 -12 37 -33
46 -38 75 -38 47 0 86 25 93 58 7 37 -1 92 -17 106 -43 39 -60 49 -95 56 -22
4 -44 4 -49 1z m82 -46 c9 -9 23 -32 32 -51 45 -94 -55 -129 -105 -37 -12 24
-15 86 -4 96 12 13 61 7 77 -8z m-177 -119 c12 -13 19 -27 16 -30 -4 -3 -1 -6
5 -6 7 0 12 -17 12 -44 0 -43 -10 -56 -44 -56 -37 0 -91 95 -79 140 8 30 63
27 90 -4z"/>
<path d="M10959 9251 c-16 -16 -29 -38 -30 -48 0 -10 -1 -33 -2 -51 -1 -17 0
-32 3 -32 4 0 12 -17 19 -37 14 -39 19 -45 66 -96 51 -54 114 -50 142 11 18
37 19 82 2 82 -5 0 -9 6 -9 14 0 19 -49 65 -77 72 -15 4 -38 -1 -58 -12 -39
-21 -45 -18 -49 22 -5 48 33 87 48 49 7 -18 46 -20 46 -2 0 23 -31 57 -51 57
-11 0 -34 -13 -50 -29z m111 -128 c49 -28 75 -107 44 -130 -10 -7 -21 -13 -25
-13 -15 0 -58 47 -69 74 -18 49 -12 78 18 85 2 1 17 -6 32 -16z"/>
<path d="M9773 9263 c-18 -7 -16 -33 2 -33 16 0 55 -55 55 -77 0 -7 -9 -13
-19 -13 -21 0 -56 -38 -66 -71 -10 -30 41 -128 72 -140 37 -14 67 -11 89 9 10
10 34 24 52 31 17 7 32 16 32 19 0 2 -12 17 -27 31 -16 15 -39 49 -53 76 -14
27 -30 55 -37 62 -6 7 -15 23 -19 35 -4 12 -12 28 -18 35 -6 7 -17 19 -24 28
-13 16 -19 17 -39 8z m112 -193 c16 -25 25 -54 25 -80 0 -38 -1 -40 -31 -40
-55 0 -112 84 -94 140 5 15 15 20 41 20 29 0 38 -6 59 -40z"/>
<path d="M7454 9246 c-8 -9 -7 -15 3 -25 18 -16 45 -7 37 13 -8 20 -27 26 -40
12z"/>
<path d="M7655 9246 c-29 -13 -65 -54 -65 -75 0 -14 42 -56 63 -64 11 -4 16
-3 12 3 -4 6 14 10 44 10 50 0 51 -1 51 -30 0 -16 -3 -30 -7 -31 -5 0 -19 -2
-32 -5 -14 -2 -32 3 -43 12 -23 21 -37 10 -20 -16 7 -11 12 -27 12 -35 0 -8 2
-15 5 -15 12 0 84 43 99 59 23 25 16 68 -17 97 -15 13 -25 29 -22 34 4 6 2 10
-3 10 -5 0 -15 14 -22 30 -14 34 -14 34 -55 16z m50 -46 c23 -25 17 -31 -40
-37 -40 -5 -45 -3 -45 14 0 44 53 58 85 23z"/>
<path d="M7345 9200 c-17 -19 -17 -20 1 -26 27 -10 54 -35 48 -45 -3 -5 0 -9
5 -9 6 0 11 -7 11 -15 0 -8 -7 -15 -14 -15 -18 0 -66 -43 -66 -59 0 -6 -4 -11
-9 -11 -12 0 0 -40 27 -96 15 -29 30 -43 54 -51 37 -11 78 -1 90 22 5 7 22 16
38 20 33 7 40 30 13 37 -10 3 -52 64 -93 136 -41 73 -78 132 -81 132 -3 0 -14
-9 -24 -20z m117 -186 c52 -74 26 -142 -43 -114 -27 11 -34 21 -30 43 1 5 -3
6 -8 3 -12 -8 -21 18 -21 64 0 41 10 50 50 46 16 -2 35 -16 52 -42z"/>
<path d="M7502 9150 l-22 -19 22 -7 c46 -13 88 -80 88 -138 0 -30 3 -34 18
-29 9 4 25 15 35 24 18 17 18 17 0 23 -11 4 -30 28 -43 54 -13 26 -28 52 -32
57 -5 6 -16 20 -26 31 -17 21 -18 21 -40 4z"/>
<path d="M5936 9145 c-15 -12 -17 -17 -7 -29 7 -9 21 -18 31 -21 10 -3 21 -13
24 -23 3 -9 9 -23 12 -29 3 -8 -2 -13 -13 -13 -47 -1 -90 -79 -67 -121 7 -13
10 -27 8 -31 -3 -5 0 -8 5 -8 6 0 11 -6 11 -12 1 -15 36 -42 67 -52 23 -7 93
19 93 35 0 4 16 11 35 15 19 3 35 9 35 13 0 12 -15 28 -32 34 -10 3 -27 21
-37 39 -11 18 -24 38 -28 43 -5 6 -10 15 -12 20 -7 29 -84 155 -94 155 -7 0
-21 -7 -31 -15z m91 -162 c38 -34 57 -81 48 -120 -4 -19 -12 -23 -42 -23 -20
0 -34 3 -31 6 3 3 -5 17 -18 31 -13 14 -21 29 -18 34 3 5 0 9 -5 9 -17 0 -13
47 5 64 20 21 36 20 61 -1z"/>
<path d="M6130 9120 c-21 -21 -28 -90 -9 -90 5 0 8 -4 5 -9 -4 -5 5 -4 18 2
23 11 24 14 11 34 -22 33 -18 45 13 41 38 -4 42 -42 8 -69 -51 -40 -19 -141
38 -123 52 16 66 25 66 39 0 11 7 15 23 13 31 -4 51 33 35 67 -13 28 -30 34
-26 9 2 -10 -3 -19 -9 -21 -7 -3 -13 0 -13 7 0 12 -32 60 -64 98 -24 28 -69
29 -96 2z m121 -102 c1 -7 3 -23 4 -35 3 -26 -11 -40 -38 -40 -22 0 -32 38
-17 66 12 23 49 29 51 9z"/>
<path d="M9397 9042 c-19 -21 -13 -32 15 -32 10 0 18 -7 18 -15 0 -8 5 -15 10
-15 6 0 10 -9 10 -20 0 -11 9 -29 20 -40 11 -11 20 -26 20 -33 0 -8 9 -22 20
-32 11 -10 20 -26 20 -36 0 -10 5 -21 10 -24 6 -3 10 -17 10 -30 0 -22 2 -23
30 -12 29 11 49 37 28 37 -14 0 -48 39 -48 57 0 7 -5 13 -11 13 -5 0 -7 5 -4
10 3 6 1 10 -4 10 -6 0 -11 6 -11 13 0 8 -9 24 -20 37 -11 13 -20 29 -20 37 0
7 -3 13 -8 13 -4 0 -13 15 -21 33 -22 50 -39 57 -64 29z"/>
<path d="M9603 9025 c-27 -11 -63 -65 -44 -65 5 0 14 -13 20 -30 5 -16 15 -30
20 -30 6 0 11 -14 11 -31 0 -51 17 -72 53 -65 17 4 40 15 52 25 11 10 34 25
50 32 37 17 43 49 15 74 -21 19 -21 19 -10 -9 6 -16 8 -31 6 -34 -9 -8 -37 8
-31 18 3 5 1 10 -4 10 -6 0 -11 6 -11 13 0 8 -9 24 -20 37 -11 13 -20 31 -20
40 0 23 -49 31 -87 15z m57 -46 c13 -23 -1 -49 -26 -49 -15 0 -34 30 -34 54 0
24 47 20 60 -5z m44 -65 c9 -25 7 -72 -4 -79 -6 -3 -19 -3 -30 0 -15 5 -20 15
-20 44 0 21 3 41 7 44 12 13 41 7 47 -9z"/>
<path d="M8219 9001 c-8 -10 -18 -25 -22 -34 -5 -14 -1 -15 23 -10 25 5 31 1
42 -23 7 -16 18 -34 24 -41 6 -7 27 -42 45 -78 31 -61 32 -68 16 -77 -29 -16
-9 -28 21 -12 15 7 32 14 37 14 12 0 48 40 37 41 -4 1 -18 2 -30 2 -17 2 -31
14 -47 44 -12 24 -27 48 -32 55 -6 7 -21 33 -34 58 -25 49 -49 80 -58 79 -3 0
-13 -9 -22 -18z"/>
<path d="M10328 8906 c-24 -18 -23 -36 2 -36 11 0 27 -12 36 -27 9 -16 25 -40
35 -55 11 -15 19 -34 19 -43 0 -8 4 -15 8 -15 14 0 53 -91 47 -111 -5 -15 -1
-19 15 -19 11 0 23 7 26 15 4 8 12 15 20 15 21 0 17 30 -3 30 -15 1 -76 83
-75 100 0 3 -5 12 -12 20 -8 8 -28 43 -47 78 -34 65 -42 70 -71 48z"/>
<path d="M7061 8893 c-21 -17 -21 -19 -4 -42 9 -14 18 -35 19 -48 2 -13 5 -32
9 -43 9 -28 -10 -25 -33 5 -11 14 -27 25 -36 25 -9 0 -16 3 -17 8 -2 20 -8 44
-12 49 -6 5 -49 -18 -59 -32 -13 -17 -9 -35 7 -29 8 3 35 -11 62 -32 84 -67
105 -91 108 -129 4 -37 -10 -54 -28 -36 -17 17 -27 13 -27 -9 0 -11 8 -24 18
-27 9 -4 20 -11 23 -15 3 -5 14 3 23 17 14 21 16 40 12 88 -3 34 -8 73 -12 87
-3 14 -7 41 -9 61 -1 20 -5 41 -8 46 -9 15 1 55 15 65 9 5 6 8 -8 8 -12 0 -31
-8 -43 -17z"/>
<path d="M7967 8893 c-13 -13 -7 -32 13 -38 11 -3 20 -13 20 -21 0 -8 4 -14 9
-14 5 0 14 -15 22 -32 7 -18 16 -35 20 -38 19 -15 71 -123 66 -140 -7 -27 32
-27 56 0 21 25 21 30 2 30 -40 0 -96 146 -64 165 21 14 60 -6 71 -35 5 -17 14
-30 20 -30 5 0 6 -4 3 -10 -3 -5 -1 -10 4 -10 6 0 11 -21 11 -47 l0 -47 20 22
c12 12 27 22 35 22 21 0 19 19 -2 27 -23 9 -38 27 -67 84 -14 25 -36 50 -50
57 -22 10 -29 8 -55 -13 -36 -31 -47 -31 -55 0 -4 14 -11 25 -17 25 -6 0 -7 5
-4 10 3 6 1 10 -4 10 -6 0 -11 7 -11 15 0 15 -31 21 -43 8z"/>
<path d="M9314 8855 c-28 -28 -30 -77 -3 -94 14 -8 19 -7 24 10 4 11 1 26 -5
34 -6 8 -9 19 -5 25 9 15 51 12 66 -6 10 -13 8 -19 -15 -41 -24 -22 -46 -61
-46 -82 0 -5 11 -20 24 -34 22 -24 27 -25 61 -14 21 6 40 19 43 29 2 10 12 18
22 18 18 0 50 25 50 38 0 4 -9 18 -20 32 -11 14 -19 19 -18 11 7 -32 -20 -18
-47 25 -49 78 -88 92 -131 49z m114 -92 c16 -30 9 -77 -11 -81 -22 -4 -47 15
-47 37 0 20 27 61 40 61 5 0 13 -8 18 -17z"/>
<path d="M9225 8800 c-3 -5 -14 -10 -24 -10 -24 0 -61 -41 -61 -69 0 -12 11
-32 25 -45 14 -13 25 -30 25 -39 0 -20 21 -70 33 -78 12 -8 78 24 98 48 21 24
31 53 19 53 -6 0 -10 6 -10 14 0 8 -13 20 -30 27 -20 9 -29 20 -28 34 1 11 -6
32 -16 48 -20 30 -22 31 -31 17z m19 -46 c9 -3 16 -14 16 -24 0 -20 -41 -34
-71 -25 -18 6 -26 35 -12 48 8 9 46 9 67 1z m64 -118 c-3 -26 -8 -31 -33 -34
-31 -3 -75 24 -75 46 0 12 29 19 78 19 31 0 33 -2 30 -31z"/>
<path d="M6615 8783 c-20 -14 -20 -14 -1 -29 11 -8 23 -14 28 -14 4 0 8 -9 8
-20 0 -11 5 -20 10 -20 6 0 10 -7 10 -15 0 -8 -8 -15 -18 -15 -19 0 -41 -28
-58 -75 -9 -26 -7 -37 19 -85 16 -30 34 -58 41 -62 22 -15 85 -4 110 19 13 12
36 25 50 29 25 6 37 34 15 34 -18 0 -51 41 -79 95 -14 28 -28 52 -31 55 -4 3
-19 28 -33 57 -31 58 -44 67 -71 46z m114 -189 c12 -20 24 -51 27 -70 5 -30 2
-35 -21 -44 -31 -12 -57 2 -86 47 -19 27 -25 83 -12 96 3 4 21 7 39 7 26 0 36
-6 53 -36z"/>
<path d="M6835 8776 c-17 -7 -36 -24 -42 -38 -15 -33 -6 -75 18 -81 14 -4 19
-14 19 -40 0 -47 29 -82 61 -74 13 3 33 14 44 24 11 11 35 25 53 32 35 15 39
32 17 71 l-14 25 -1 -27 c0 -40 -13 -34 -43 20 -22 39 -72 103 -80 102 -1 -1
-16 -7 -32 -14z m45 -52 c11 -12 10 -18 -4 -32 -20 -20 -49 -6 -54 27 -3 17 2
21 21 21 14 0 30 -7 37 -16z m46 -78 c10 -41 1 -61 -26 -61 -20 0 -26 6 -28
28 -6 51 42 80 54 33z"/>
<path d="M7970 8750 c0 -6 -9 -10 -20 -10 -27 0 -60 -39 -60 -71 0 -46 24 -61
94 -57 l61 3 0 -30 c0 -27 -4 -30 -33 -33 -24 -2 -39 2 -51 17 -24 28 -34 15
-16 -20 20 -38 19 -49 -5 -49 -14 0 -32 21 -62 75 -45 77 -62 93 -83 75 -14
-12 -8 -53 6 -44 11 7 51 -21 42 -29 -3 -4 -2 -7 4 -7 16 0 36 -56 31 -90 -5
-36 9 -43 36 -18 11 10 26 18 33 18 7 0 13 5 13 10 0 6 6 10 13 10 6 0 33 10
59 22 44 21 47 26 48 61 0 20 -5 37 -11 37 -5 0 -7 4 -4 10 3 5 -4 15 -17 21
-16 7 -29 26 -37 54 -11 38 -41 71 -41 45z m34 -62 c13 -21 10 -24 -34 -32
-44 -7 -61 3 -53 32 5 19 11 23 41 20 19 -2 40 -11 46 -20z"/>
<path d="M10278 8737 c-34 -28 -42 -57 -29 -104 22 -81 106 -120 165 -76 28
21 39 68 20 84 -10 8 -15 4 -19 -18 -4 -15 -8 -34 -11 -40 -4 -16 -54 -16 -74
0 -29 23 -21 42 29 72 28 16 49 33 48 39 -4 22 -56 66 -79 66 -13 0 -35 -10
-50 -23z m60 -20 c20 -13 14 -43 -12 -56 -29 -16 -46 -8 -46 23 0 37 26 52 58
33z"/>
<path d="M7740 8740 c-10 -6 -11 -10 -2 -10 6 0 12 -7 12 -15 0 -17 9 -19 29
-6 12 8 12 12 2 25 -16 18 -21 19 -41 6z"/>
<path d="M11232 8723 c-23 -29 -29 -53 -13 -53 6 0 13 5 16 10 3 6 13 10 22
10 9 0 13 -3 10 -7 -4 -3 -1 -13 7 -22 7 -9 28 -43 45 -76 18 -33 36 -64 42
-69 12 -13 12 -56 -1 -56 -5 0 -10 -4 -10 -10 0 -15 36 -12 50 5 7 8 16 12 21
9 5 -3 9 0 9 5 0 6 7 11 15 11 8 0 15 7 15 15 0 10 -10 15 -28 15 -16 0 -31 7
-37 18 -6 10 -17 32 -25 48 -8 16 -20 35 -27 42 -7 7 -16 24 -19 38 -3 13 -10
24 -14 24 -5 0 -12 10 -16 22 -6 20 -27 48 -36 48 -3 0 -14 -12 -26 -27z"/>
<path d="M7632 8698 c-17 -17 -15 -28 6 -28 24 0 48 -27 57 -62 6 -23 4 -28
-12 -28 -11 0 -29 -11 -41 -23 -23 -25 -47 -87 -33 -87 4 0 16 -18 27 -39 20
-41 58 -71 91 -71 10 0 38 14 63 30 25 16 51 30 58 30 21 0 13 28 -9 32 -16 2
-42 37 -94 128 -40 69 -79 126 -87 128 -7 1 -19 -3 -26 -10z m118 -178 c27
-38 37 -95 20 -115 -7 -8 -23 -15 -37 -15 -25 0 -76 46 -67 61 3 5 0 9 -5 9
-12 0 -15 72 -4 83 3 4 21 7 39 7 25 0 38 -7 54 -30z"/>
<path d="M10122 8644 c-34 -20 -62 -40 -62 -45 0 -18 30 -69 40 -69 6 0 8 11
4 24 -9 37 4 66 29 66 21 0 22 -3 19 -105 -4 -97 -2 -105 15 -105 10 0 24 9
31 20 7 11 20 20 30 20 26 1 61 35 59 59 -1 11 -4 21 -8 21 -4 0 -9 9 -12 20
-9 36 -28 23 -21 -15 7 -40 -7 -65 -38 -65 -18 0 -19 5 -12 93 3 50 8 95 10
98 2 4 -2 9 -10 12 -7 3 -41 -10 -74 -29z"/>
<path d="M5300 8641 c0 -5 -17 -18 -37 -28 -45 -22 -52 -40 -21 -52 28 -10 78
-97 78 -134 0 -32 19 -45 35 -24 7 10 19 17 27 17 9 0 21 7 28 15 11 13 8 16
-19 21 -60 12 -106 135 -53 142 23 4 26 10 16 36 -6 17 -54 23 -54 7z"/>
<path d="M9917 8624 c-4 -4 -2 -13 4 -21 7 -8 9 -31 5 -59 -5 -42 -4 -45 14
-39 16 5 22 0 31 -22 5 -15 13 -30 17 -33 4 -3 20 -24 35 -47 28 -41 33 -43
73 -30 30 10 47 52 28 67 -8 7 -14 19 -14 26 0 8 -5 14 -11 14 -7 0 -8 -14 -4
-40 10 -59 -17 -53 -60 15 -36 56 -45 95 -21 95 8 0 17 7 20 16 5 14 1 15 -28
10 -30 -6 -37 -3 -58 24 -13 17 -27 28 -31 24z"/>
<path d="M9799 8584 c-9 -10 -10 -21 -3 -31 13 -20 25 -21 37 -2 8 13 6 21 -5
33 -15 14 -17 14 -29 0z"/>
<path d="M6474 8567 c-10 -6 -25 -19 -32 -29 -7 -10 -21 -18 -31 -18 -41 0
-55 -46 -16 -56 14 -3 23 -10 20 -14 -3 -5 0 -10 5 -12 6 -2 12 -11 13 -19 2
-9 10 -24 20 -33 9 -10 17 -33 17 -52 l0 -34 35 18 c37 18 48 52 16 52 -11 0
-23 12 -31 30 -7 17 -16 30 -20 30 -12 0 -23 56 -15 80 4 12 15 20 29 20 29 0
86 -97 86 -146 0 -32 1 -34 22 -22 64 36 78 58 38 58 -16 0 -54 36 -58 55 -3
18 -36 75 -44 75 -3 0 -13 6 -20 14 -11 10 -19 11 -34 3z"/>
<path d="M5115 8534 c-28 -36 -33 -72 -19 -116 11 -32 54 -89 54 -71 0 4 5 2
12 -5 16 -16 59 -15 84 3 12 8 23 12 26 10 2 -2 5 6 5 18 1 12 7 23 12 25 8 3
8 10 0 23 -14 27 -31 19 -35 -16 -3 -28 -18 -45 -40 -45 -15 0 -64 39 -64 51
0 5 22 21 50 37 27 15 50 32 50 37 -1 17 -24 41 -57 58 -43 23 -55 21 -78 -9z
m69 -30 c22 -21 20 -28 -8 -44 -30 -16 -57 -7 -53 17 7 44 33 55 61 27z"/>
<path d="M8516 8502 c-9 -17 -24 -36 -33 -42 -14 -9 -10 -10 19 -5 36 6 39 4
55 -32 10 -21 23 -43 29 -49 6 -7 23 -37 39 -67 29 -55 29 -56 11 -76 -11 -12
-14 -21 -8 -21 14 0 71 31 96 53 19 17 19 17 -11 17 -28 0 -36 7 -67 59 -20
32 -36 62 -36 65 0 4 -8 19 -19 34 -10 15 -27 42 -39 61 l-20 34 -16 -31z"/>
<path d="M9847 8485 c-24 -17 -21 -42 5 -41 25 1 77 -83 78 -126 0 -15 5 -30
10 -33 6 -3 10 -1 10 4 0 6 6 11 13 11 8 0 22 9 32 20 18 19 17 20 -3 20 -13
0 -22 6 -22 15 0 8 -3 15 -8 15 -4 0 -22 27 -40 59 -35 65 -49 75 -75 56z"/>
<path d="M6050 8450 c-16 -16 -18 -24 -9 -50 6 -17 9 -39 6 -50 -3 -11 -1 -23
5 -26 5 -3 7 -12 4 -19 -3 -8 -1 -15 4 -17 4 -2 11 -27 15 -55 8 -63 -2 -67
-49 -20 -33 32 -63 59 -124 110 -33 27 -34 27 -63 10 -29 -17 -37 -37 -20 -47
5 -4 11 0 14 6 5 18 37 -9 37 -31 0 -9 9 -24 20 -34 11 -9 20 -24 20 -32 0 -8
3 -15 8 -15 4 0 13 -15 21 -32 8 -18 19 -36 24 -40 6 -3 11 -22 11 -42 2 -45
6 -48 45 -35 36 13 39 42 4 47 -11 2 -24 11 -27 20 -6 19 -19 40 -53 89 -47
65 -21 69 42 6 24 -24 46 -43 51 -43 4 0 20 -14 35 -31 21 -24 31 -29 44 -22
19 11 21 23 7 32 -5 3 -12 24 -16 46 -12 78 -18 108 -26 131 -15 39 7 37 34
-3 15 -21 26 -43 26 -49 0 -6 9 -22 20 -34 13 -16 20 -35 18 -54 -3 -26 0 -30
16 -28 26 5 66 35 62 47 -1 6 -11 11 -22 13 -18 3 -104 136 -104 162 0 5 -4
10 -9 10 -5 0 -14 13 -21 30 -10 25 -10 32 4 45 21 22 20 25 -9 25 -14 0 -34
-9 -45 -20z"/>
<path d="M4953 8439 c-18 -12 -33 -25 -33 -30 0 -5 -11 -9 -25 -9 -13 0 -34
-11 -47 -24 -13 -13 -32 -26 -42 -28 -24 -4 -46 -39 -29 -45 13 -5 67 -53 58
-53 -3 0 4 -18 15 -40 11 -21 20 -48 20 -60 0 -23 28 -27 36 -5 4 8 12 15 19
15 7 0 16 7 19 16 9 23 8 24 -12 24 -10 0 -25 9 -35 20 -9 11 -14 20 -10 20 3
0 -2 9 -12 20 -10 11 -15 20 -10 20 4 0 3 6 -3 13 -24 29 3 73 38 62 12 -4 19
-9 16 -12 -3 -3 2 -12 10 -20 8 -8 11 -19 8 -25 -4 -6 -3 -8 3 -5 13 8 33 -36
33 -73 0 -24 3 -27 23 -23 24 6 57 31 57 45 0 4 -8 8 -17 8 -22 1 -50 37 -66
87 -15 43 -15 53 -4 71 11 17 47 15 47 -3 0 -8 3 -15 8 -15 15 0 54 -90 50
-115 -4 -19 -1 -25 13 -25 11 0 19 5 19 10 0 6 8 10 18 10 19 0 42 18 42 32 0
4 -11 8 -24 8 -19 0 -31 12 -57 58 -31 56 -64 92 -84 92 -5 0 -25 -10 -42 -21z"/>
<path d="M6249 8431 c-26 -27 -35 -57 -29 -100 3 -23 44 -81 58 -81 6 0 12 -4
12 -9 0 -5 13 -11 30 -13 57 -9 114 55 100 112 -16 61 -33 86 -74 103 -55 23
-63 22 -97 -12z m99 -36 c33 -42 44 -78 33 -108 -24 -61 -110 -9 -126 75 -11
57 56 80 93 33z"/>
<path d="M9710 8405 c-12 -13 -26 -22 -30 -20 -4 2 -18 -6 -31 -18 -23 -21
-23 -22 -3 -25 24 -4 84 -99 87 -140 1 -16 7 -28 12 -27 30 6 63 26 69 40 3 9
2 14 -3 11 -24 -15 -91 85 -91 135 0 28 20 42 44 33 8 -3 24 -28 37 -55 13
-27 27 -49 30 -49 4 0 6 -12 4 -27 -4 -41 4 -47 32 -21 13 13 28 21 31 19 4
-3 8 3 10 12 2 12 -3 17 -18 17 -13 0 -25 10 -33 28 -13 30 -45 80 -64 100
-19 20 -58 14 -83 -13z"/>
<path d="M7351 8388 c-22 -20 -23 -22 -6 -34 9 -7 19 -30 22 -51 2 -21 6 -44
8 -50 6 -18 -24 -16 -31 2 -4 8 -10 15 -15 15 -20 0 -49 37 -43 53 8 22 -19
22 -51 1 -27 -17 -35 -47 -11 -38 8 3 21 1 28 -5 7 -6 31 -26 53 -45 22 -19
50 -42 62 -52 12 -11 25 -36 29 -57 6 -37 5 -39 -17 -36 -39 5 -54 -9 -33 -32
24 -26 61 -25 70 4 9 29 6 104 -6 143 -11 31 -19 102 -20 167 0 43 -7 45 -39
15z"/>
<path d="M8262 8388 c-16 -16 -15 -28 2 -28 14 0 106 -146 106 -168 0 -7 4
-12 8 -12 12 0 32 -47 32 -75 0 -31 2 -31 47 -1 l36 25 -25 6 c-28 7 -78 87
-78 123 0 49 27 66 60 39 27 -22 72 -116 65 -137 -6 -18 -4 -19 17 -10 13 6
31 13 41 16 13 5 15 10 6 20 -6 8 -17 14 -25 14 -7 0 -30 28 -50 63 -20 34
-41 65 -48 69 -21 14 -55 8 -66 -12 -6 -11 -17 -20 -24 -20 -14 0 -52 49 -48
63 1 4 -2 7 -8 7 -5 0 -10 7 -10 15 0 18 -21 20 -38 3z"/>
<path d="M9393 8368 c-24 -31 -27 -41 -10 -35 9 3 22 1 27 -6 21 -23 130 -220
130 -234 0 -18 -19 -17 -26 2 -9 23 -24 18 -24 -9 0 -27 -23 -56 -44 -56 -22
0 -62 37 -75 69 -28 66 8 119 48 70 10 -12 23 -19 29 -15 17 10 15 31 -5 49
-57 50 -135 -9 -123 -92 3 -25 70 -105 90 -108 11 -1 23 -4 27 -5 17 -5 73 37
73 55 0 13 5 17 15 13 18 -7 75 12 75 26 0 5 5 6 10 3 6 -3 10 -1 10 5 0 7 -9
14 -20 17 -41 11 -93 133 -67 159 9 9 57 -5 57 -17 0 -5 11 -27 25 -47 14 -20
25 -49 25 -64 0 -31 20 -37 40 -13 7 8 19 15 26 15 24 0 16 30 -8 30 -21 1
-68 56 -68 81 0 5 -4 9 -10 9 -5 0 -10 7 -10 15 0 15 -29 35 -52 35 -7 0 -26
-11 -41 -26 l-27 -25 -18 31 c-23 43 -52 80 -62 80 -4 0 -12 -6 -17 -12z"/>
<path d="M10676 8300 c-34 -22 -56 -58 -48 -78 4 -12 -3 -13 -36 -7 -54 9
-102 -11 -102 -42 0 -12 -4 -24 -9 -27 -9 -6 6 -57 24 -86 18 -28 67 -60 92
-60 54 0 110 73 77 101 -13 11 -18 6 -15 -15 1 -4 -6 -19 -14 -33 -13 -19 -22
-23 -42 -18 -30 7 -53 28 -52 47 0 7 21 27 47 44 26 16 46 36 44 43 -2 10 4
12 20 8 12 -4 42 -1 67 5 39 10 46 9 57 -7 20 -28 17 -44 -11 -57 -22 -10 -30
-8 -56 11 -42 31 -52 15 -22 -33 14 -21 28 -35 32 -30 3 5 23 18 45 29 21 11
41 26 44 35 3 8 10 18 16 22 7 5 7 8 -1 8 -7 0 -13 6 -13 13 0 8 -11 24 -24
36 -21 20 -30 21 -81 16 l-57 -7 4 28 c4 38 47 45 79 13 l22 -22 -7 33 c-10
53 -32 61 -80 30z m-89 -122 c4 -7 8 -18 9 -25 2 -14 -51 -37 -65 -28 -12 7
-15 48 -4 58 11 12 51 8 60 -5z"/>
<path d="M6907 8282 c-17 -20 -12 -43 9 -35 8 3 14 0 14 -7 0 -6 7 -18 15 -26
22 -22 19 -54 -5 -54 -11 0 -27 -12 -37 -27 -10 -16 -21 -30 -24 -33 -12 -9
33 -130 47 -130 8 0 14 -4 14 -9 0 -24 90 -29 103 -5 5 8 12 12 18 9 5 -4 9
-1 9 4 0 6 8 11 19 11 22 0 45 25 36 40 -3 5 -12 10 -20 10 -7 0 -15 6 -19 13
-3 6 -19 35 -36 62 -16 28 -47 80 -67 117 -42 75 -54 85 -76 60z m110 -191
c30 -44 39 -80 26 -100 -17 -28 -51 -25 -83 7 -33 33 -45 70 -36 108 6 21 12
25 39 22 23 -2 38 -12 54 -37z"/>
<path d="M4657 8270 c-47 -37 -45 -133 2 -179 46 -43 77 -47 124 -16 46 30 53
71 24 138 -15 37 -28 51 -55 62 -46 20 -64 19 -95 -5z m96 -51 c14 -18 29 -44
32 -60 7 -32 -9 -69 -30 -69 -23 0 -65 22 -59 31 3 5 1 9 -4 9 -22 0 -43 95
-25 113 17 18 61 5 86 -24z"/>
<path d="M7091 8239 c-21 -34 -16 -65 12 -83 24 -15 31 -1 17 34 -7 17 -11 33
-8 35 12 13 51 8 61 -7 9 -14 7 -21 -11 -36 -12 -11 -22 -24 -22 -31 0 -6 -4
-11 -8 -11 -11 0 -11 -41 0 -72 8 -20 17 -28 35 -28 29 0 83 26 83 41 0 6 4 8
10 4 13 -8 50 26 50 45 0 9 -7 25 -15 36 -14 18 -14 18 -15 -8 0 -16 -5 -28
-11 -28 -5 0 -7 5 -4 10 3 6 2 10 -3 10 -5 0 -15 14 -22 30 -37 88 -113 118
-149 59z m123 -82 c12 -11 14 -63 3 -73 -2 -3 -14 -6 -26 -9 -26 -5 -39 35
-22 71 12 27 26 30 45 11z"/>
<path d="M4454 8212 c8 -55 -2 -93 -23 -91 -28 3 -79 -22 -95 -46 -22 -33 -20
-50 9 -81 14 -15 25 -35 25 -45 0 -10 5 -21 10 -24 6 -3 10 -15 10 -26 0 -40
-31 -16 -72 56 -47 81 -60 92 -83 69 -22 -23 -20 -53 4 -47 30 8 75 -76 67
-122 -5 -26 -12 -35 -26 -35 -11 0 -20 7 -20 15 0 8 -4 15 -9 15 -5 0 -15 15
-22 33 -7 17 -19 38 -26 45 -7 7 -13 19 -13 27 0 21 -31 27 -51 9 -25 -23 -24
-33 5 -44 14 -5 33 -28 47 -58 31 -64 60 -83 105 -69 19 6 34 16 34 24 0 7 8
13 18 13 10 0 28 9 41 21 12 12 25 18 28 15 3 -3 25 8 49 24 23 17 47 30 51
30 14 0 6 58 -11 85 -9 14 -24 25 -32 25 -11 0 -15 6 -11 20 3 11 1 23 -4 26
-5 3 -9 14 -9 25 0 15 6 20 22 17 14 -2 35 -25 61 -70 22 -36 48 -69 58 -71
19 -5 83 29 76 41 -2 4 -12 24 -22 44 -21 46 -37 41 -22 -7 27 -89 -42 -37
-89 66 -11 24 -10 28 10 39 36 19 28 38 -14 33 -33 -4 -40 -1 -59 29 l-23 33
6 -43z m-29 -157 c0 -21 -32 -32 -61 -21 -12 5 -12 9 -2 26 17 27 63 24 63 -5z
m53 -74 c8 -4 12 -19 10 -32 -4 -31 -46 -37 -76 -11 -37 33 -31 40 43 50 6 1
16 -2 23 -7z"/>
<path d="M8040 8225 c0 -26 7 -29 34 -19 12 5 13 9 3 25 -17 27 -37 24 -37 -6z"/>
<path d="M8240 8239 c-65 -26 -80 -80 -33 -124 16 -14 29 -21 31 -15 2 5 28
10 58 10 50 0 54 -2 54 -23 0 -46 -55 -64 -92 -30 -24 22 -30 13 -16 -25 11
-29 38 -52 38 -32 0 4 15 13 33 19 18 6 40 24 49 39 15 25 15 31 3 49 -8 11
-11 23 -8 27 4 4 -3 9 -15 12 -13 4 -26 19 -33 42 -11 32 -31 63 -41 61 -2 0
-14 -5 -28 -10z m41 -39 c28 -15 23 -36 -10 -50 -32 -13 -71 0 -67 22 5 37 37
49 77 28z"/>
<path d="M11540 8242 c0 -5 -9 -19 -20 -32 -20 -23 -17 -51 3 -31 20 20 32 11
57 -40 13 -28 30 -58 38 -65 7 -8 15 -24 17 -36 3 -13 10 -27 17 -33 19 -15
20 -42 3 -49 -9 -3 -14 -10 -11 -15 7 -10 56 9 56 22 0 5 5 5 10 2 6 -3 10 -2
10 4 0 5 9 13 21 16 26 9 16 19 -18 20 -19 0 -30 9 -44 35 -10 19 -22 40 -28
46 -5 7 -7 15 -4 18 4 3 2 6 -4 6 -6 0 -16 12 -22 28 -29 71 -81 138 -81 104z"/>
<path d="M7931 8197 c-19 -19 -14 -46 8 -40 14 4 24 -3 35 -26 22 -41 20 -48
-10 -55 -23 -6 -66 -62 -70 -93 -1 -6 11 -29 27 -50 15 -21 29 -43 29 -49 0
-21 65 -32 99 -18 17 7 31 18 31 24 0 5 8 10 18 10 11 0 27 8 36 19 16 18 16
19 -6 25 -16 4 -36 29 -63 78 -21 40 -38 76 -37 81 1 4 -2 7 -7 7 -4 0 -19 20
-32 45 -26 49 -41 59 -58 42z m108 -184 c24 -29 31 -47 31 -81 0 -100 -113
-47 -127 59 -10 70 46 82 96 22z"/>
<path d="M8092 8148 c-14 -14 -16 -52 -3 -43 14 8 54 -34 74 -77 20 -42 21
-58 6 -58 -8 0 -7 -5 2 -16 8 -10 15 -12 17 -5 2 6 9 11 17 11 7 0 18 6 24 14
9 10 8 15 -3 19 -8 3 -36 42 -62 86 -27 45 -51 81 -54 81 -3 0 -11 -5 -18 -12z"/>
<path d="M9213 8127 c-48 -26 -60 -58 -35 -100 17 -28 18 -28 85 -22 66 7 67
7 67 -16 0 -39 -13 -51 -46 -43 -16 4 -35 13 -42 21 -8 7 -18 11 -22 8 -10 -6
-2 -34 16 -52 7 -7 15 -18 18 -25 5 -10 7 -10 12 0 3 6 11 12 18 12 7 0 27 7
43 15 38 19 55 81 29 101 -9 6 -16 16 -16 23 0 8 -20 10 -70 5 -73 -6 -80 -2
-64 40 8 20 53 21 60 2 3 -8 12 -17 20 -20 15 -6 15 21 -1 57 -9 22 -20 21
-72 -6z"/>
<path d="M10338 8102 c-17 -10 -28 -25 -28 -39 0 -13 -5 -23 -10 -23 -7 0 -7
-6 -1 -19 6 -10 7 -21 4 -25 -3 -3 -1 -6 6 -6 7 0 10 -4 6 -9 -3 -5 10 -26 29
-45 39 -42 86 -50 128 -22 54 36 40 139 -25 184 -39 26 -72 28 -109 4z m83
-23 c11 -5 17 -14 14 -20 -4 -5 -2 -9 3 -9 15 0 34 -55 30 -86 -2 -24 -8 -30
-33 -32 -54 -5 -113 86 -92 143 7 17 49 20 78 4z"/>
<path d="M10128 8071 c8 -4 13 -11 13 -15 -1 -3 -1 -28 -1 -55 0 -40 3 -49 17
-47 10 0 23 -11 31 -26 7 -16 17 -28 23 -28 5 0 8 -3 7 -7 -4 -13 41 -80 57
-87 8 -3 15 -1 15 4 0 5 9 12 20 15 28 9 36 49 16 80 -9 14 -23 25 -31 25 -14
0 -14 -3 0 -30 18 -35 19 -50 4 -50 -18 0 -49 40 -72 89 l-20 45 22 18 c29 23
19 41 -14 26 -21 -10 -28 -8 -45 12 -11 13 -20 27 -20 32 0 4 -8 8 -17 8 -14
0 -15 -2 -5 -9z"/>
<path d="M6738 8040 c-7 -11 -20 -20 -28 -20 -20 -1 -50 -24 -50 -39 0 -6 9
-11 21 -11 11 0 17 -5 14 -10 -3 -6 1 -13 9 -16 9 -3 13 -10 10 -15 -3 -5 -1
-9 4 -9 11 0 33 -50 41 -94 6 -30 31 -49 31 -24 0 7 15 20 33 27 l32 13 -32
14 c-22 9 -39 30 -59 68 -24 48 -26 58 -16 81 8 17 19 25 30 23 24 -5 83 -107
80 -138 -3 -21 1 -25 22 -22 14 1 27 7 28 12 2 6 13 10 24 10 29 0 16 24 -15
28 -15 2 -29 11 -32 23 -4 10 -11 19 -16 19 -6 0 -8 4 -5 9 4 5 3 11 -1 13 -5
1 -17 20 -27 41 -16 32 -24 37 -52 37 -23 0 -38 -6 -46 -20z"/>
<path d="M8801 7984 c-26 -43 -26 -43 -1 -37 25 7 47 -17 81 -84 13 -26 30
-54 36 -61 21 -22 27 -63 12 -73 -24 -14 -3 -20 27 -7 16 7 31 15 34 19 3 3
13 8 23 12 25 9 13 25 -16 20 -18 -4 -27 3 -42 30 -11 20 -42 74 -68 121 -26
47 -52 88 -56 91 -5 3 -18 -11 -30 -31z"/>
<path d="M11970 7885 c-102 -58 -192 -110 -200 -115 -17 -10 -109 -64 -155
-90 -35 -20 -672 -389 -855 -495 -69 -39 -145 -83 -170 -97 -25 -14 -245 -142
-490 -283 -245 -142 -453 -260 -462 -263 -10 -2 -18 -8 -18 -12 0 -4 -15 -13
-32 -21 -18 -7 -35 -16 -38 -19 -4 -5 -176 -106 -320 -188 -19 -10 -249 -143
-510 -294 -261 -151 -498 -288 -526 -304 -570 -323 -2234 -1292 -2234 -1301 0
-18 39 -16 46 2 4 8 14 15 23 15 9 0 24 9 34 20 9 11 25 20 35 20 10 0 25 9
35 20 9 11 26 20 37 20 11 0 23 7 26 15 4 8 14 15 23 15 9 0 24 9 34 20 9 11
25 20 35 20 10 0 25 9 35 20 9 11 25 20 35 20 10 0 25 9 35 20 9 11 26 20 37
20 11 0 23 7 26 15 4 8 14 15 23 15 9 0 24 9 34 20 9 11 25 20 35 20 10 0 25
9 35 20 9 11 25 20 35 20 10 0 25 9 35 20 9 11 26 20 37 20 11 0 23 7 26 15 4
8 14 15 23 15 9 0 24 9 34 20 9 11 25 20 35 20 10 0 25 9 35 20 9 11 26 20 37
20 11 0 23 7 26 15 4 8 15 15 25 15 10 0 28 9 39 20 11 11 26 20 33 20 7 0 20
9 30 20 9 11 25 20 35 20 10 0 25 9 35 20 9 11 26 20 37 20 11 0 23 7 26 15 4
8 14 15 23 15 9 0 24 9 34 20 9 11 25 20 35 20 10 0 25 9 35 20 9 11 25 20 35
20 10 0 25 9 35 20 9 11 26 20 37 20 11 0 23 7 26 15 4 8 14 15 23 15 9 0 24
9 34 20 9 11 25 20 35 20 10 0 25 9 35 20 9 11 26 20 37 20 11 0 23 7 26 15 4
8 15 15 25 15 10 0 28 9 39 20 11 11 26 20 33 20 7 0 20 9 30 20 9 11 25 20
35 20 10 0 25 9 35 20 9 11 26 20 37 20 11 0 23 7 26 15 4 8 17 15 30 15 13 0
29 9 36 20 7 11 20 20 28 20 9 0 23 9 33 20 9 11 25 20 35 20 10 0 25 9 35 20
9 11 26 20 37 20 11 0 23 7 26 15 4 8 14 15 23 15 9 0 24 9 34 20 9 11 25 20
35 20 10 0 25 9 35 20 9 11 25 20 35 20 10 0 25 9 35 20 9 11 26 20 37 20 11
0 23 7 26 15 4 8 14 15 23 15 9 0 24 9 34 20 9 11 25 20 35 20 11 0 27 9 37
20 10 11 27 20 37 20 10 0 21 7 24 15 4 8 14 15 25 15 10 0 30 11 45 25 15 14
33 25 40 25 8 0 14 4 14 10 0 5 12 13 28 16 15 4 35 15 45 25 10 11 26 19 35
19 10 0 25 9 35 20 9 11 24 20 32 20 8 0 15 4 15 9 0 5 15 15 33 22 17 7 38
19 45 26 7 7 24 13 38 13 14 0 24 6 24 15 0 8 12 18 28 21 15 4 35 15 45 25
10 11 24 19 32 19 8 0 15 4 15 10 0 5 12 13 28 16 15 4 35 15 45 25 10 11 26
19 35 19 10 0 25 9 35 20 9 11 25 20 35 20 10 0 25 9 35 20 9 11 24 20 32 20
8 0 15 4 15 10 0 5 12 13 28 16 15 4 35 15 45 25 10 11 26 19 35 19 10 0 25 9
35 20 9 11 26 20 37 20 11 0 23 7 26 15 3 8 15 17 27 21 12 4 27 13 35 20 7 8
21 14 31 14 10 0 26 9 36 20 10 11 25 20 34 20 9 0 24 9 34 20 9 11 24 20 32
20 8 0 15 4 15 9 0 5 15 15 33 22 17 7 38 19 45 26 7 7 21 13 30 13 10 0 25 9
35 20 9 11 25 20 35 20 10 0 25 9 35 20 9 11 24 20 32 20 8 0 15 4 15 9 0 5
13 12 29 16 16 3 37 15 47 26 9 10 24 19 33 19 9 0 24 9 34 20 9 11 25 20 35
20 10 0 25 9 35 20 9 11 24 20 32 20 8 0 15 4 15 10 0 5 12 13 28 16 15 4 35
15 45 25 10 11 26 19 35 19 10 0 25 9 35 20 9 11 25 20 35 20 10 0 25 9 35 20
9 11 24 20 32 20 8 0 15 4 15 10 0 5 12 13 28 16 15 4 35 15 45 25 10 11 26
19 35 19 10 0 25 9 35 20 9 11 24 20 32 20 8 0 15 4 15 9 0 5 15 15 33 22 17
7 38 19 45 26 7 7 21 13 30 13 10 0 25 9 35 20 9 11 26 20 36 20 11 0 24 6 28
13 7 13 24 23 93 59 14 7 31 18 38 25 7 7 21 13 30 13 10 0 25 9 35 20 9 11
25 20 35 20 10 0 25 9 35 20 9 11 24 20 32 20 8 0 15 4 15 9 0 5 15 15 33 22
17 7 38 19 45 26 7 7 21 13 30 13 10 0 25 9 35 20 9 11 24 20 32 20 8 0 15 4
15 9 0 5 15 15 33 22 17 7 38 19 45 26 7 7 22 13 33 13 11 0 22 6 25 14 3 8
17 17 32 21 15 4 35 15 45 26 10 10 24 19 32 19 8 0 15 4 15 9 0 5 15 15 33
22 17 7 38 19 45 26 7 7 21 13 30 13 10 0 25 9 35 20 9 11 25 20 35 20 10 0
25 9 35 20 9 11 24 20 32 20 8 0 15 4 15 9 0 5 15 15 33 22 17 7 38 19 45 26
7 7 21 13 30 13 15 0 15 2 2 10 -8 5 -17 10 -20 10 -3 0 -89 -47 -190 -105z"/>
<path d="M6349 7957 c-28 -13 -29 -20 -8 -110 6 -26 9 -50 6 -53 -3 -3 1 -16
7 -30 15 -28 15 -76 0 -81 -5 -2 -41 26 -79 62 -38 36 -73 65 -77 65 -4 0 -8
4 -8 9 0 19 -41 23 -65 7 -33 -22 -31 -32 6 -40 17 -3 28 -10 24 -16 -3 -5 -1
-10 4 -10 6 0 11 -8 11 -18 0 -11 9 -27 20 -37 11 -10 20 -24 20 -32 0 -7 4
-13 9 -13 5 0 12 -14 16 -31 4 -17 14 -33 22 -36 11 -5 14 -16 9 -52 -3 -25
-3 -40 0 -33 3 6 13 12 22 12 17 1 62 33 62 44 0 3 -7 6 -15 6 -8 0 -15 5 -15
11 0 5 -4 8 -9 5 -9 -6 -26 11 -46 44 -30 52 -43 77 -50 100 -7 21 -6 22 7 10
26 -26 151 -135 168 -147 22 -16 31 -7 20 21 -4 12 -11 49 -15 82 -4 32 -12
74 -18 91 -16 48 5 66 24 21 7 -18 19 -39 26 -46 7 -7 13 -22 13 -32 0 -11 7
-23 17 -28 12 -7 14 -17 10 -42 -7 -31 -6 -32 21 -25 15 3 35 14 45 24 21 20
13 51 -11 45 -25 -7 -145 206 -136 241 7 27 2 29 -37 12z"/>
<path d="M6550 7944 c-8 -3 -21 -17 -27 -31 -26 -56 -9 -123 42 -165 32 -26
75 -42 75 -27 0 5 11 11 24 15 45 11 62 92 31 140 -8 13 -15 30 -15 39 0 8 -9
15 -20 15 -11 0 -20 5 -20 10 0 10 -59 12 -90 4z m72 -36 c22 -18 58 -79 58
-100 0 -23 -27 -48 -53 -48 -44 0 -108 110 -76 131 8 5 10 9 4 9 -16 0 18 20
36 20 8 0 22 -6 31 -12z"/>
<path d="M10017 7918 c-9 -7 -20 -25 -26 -39 -8 -22 -5 -31 20 -58 16 -18 28
-38 27 -44 -4 -23 13 -67 26 -67 8 0 21 -3 29 -6 8 -3 28 8 46 26 18 19 38 30
46 26 8 -3 15 -1 15 5 0 6 5 7 10 4 6 -3 10 -2 10 4 0 5 2 16 5 24 3 7 -4 25
-15 38 l-21 24 5 -27 c9 -41 -17 -36 -34 7 -8 19 -17 35 -22 35 -4 0 -8 6 -8
14 0 40 -75 62 -113 34z m68 -48 c0 -29 -22 -37 -49 -17 -28 20 -14 49 21 45
22 -2 28 -8 28 -28z m40 -50 c-3 -5 -1 -10 4 -10 14 0 14 -57 0 -65 -5 -4 -21
-4 -35 -1 -23 6 -25 10 -19 39 10 43 13 47 36 47 11 0 17 -4 14 -10z"/>
<path d="M4020 7900 c-11 -11 -20 -27 -20 -35 0 -8 -4 -15 -8 -15 -11 0 -9
-31 3 -50 6 -8 17 -28 26 -45 9 -16 29 -37 45 -45 16 -8 32 -19 36 -25 5 -6 8
-6 8 1 0 7 12 15 26 18 38 10 63 44 55 75 -11 39 -31 38 -31 -2 0 -26 -5 -37
-18 -41 -56 -18 -130 82 -101 136 12 21 49 24 49 4 0 -19 14 -28 34 -20 21 8
14 46 -10 55 -35 14 -74 9 -94 -11z"/>
<path d="M7650 7891 c-28 -18 -37 -41 -16 -41 15 0 32 -53 22 -69 -4 -5 -2
-12 4 -16 13 -8 13 -25 0 -25 -16 0 -70 42 -70 54 0 6 -7 19 -15 29 -13 18
-15 18 -44 1 -40 -24 -48 -44 -16 -44 13 0 38 -12 57 -27 18 -16 44 -37 57
-48 49 -41 61 -59 61 -93 0 -30 -2 -34 -23 -29 -12 4 -29 2 -37 -3 -11 -7 -11
-10 -2 -10 7 0 11 -4 7 -9 -3 -5 4 -12 15 -16 11 -3 20 -11 20 -17 0 -6 11 1
24 17 14 16 23 37 21 49 -2 12 -9 55 -16 96 -15 93 -19 172 -9 185 16 20 -14
32 -40 16z"/>
<path d="M9820 7886 c0 -8 4 -17 9 -21 5 -3 8 -27 6 -53 -2 -26 -1 -41 1 -34
10 22 23 13 44 -28 11 -22 25 -40 31 -40 6 0 7 -4 4 -10 -3 -5 7 -22 22 -38
23 -25 32 -28 53 -20 13 5 28 14 32 21 13 20 9 54 -7 67 -8 7 -12 17 -8 23 3
6 1 7 -5 3 -15 -9 -16 -46 -2 -46 6 0 10 -7 10 -16 0 -22 -40 -14 -54 11 -6
11 -13 22 -16 25 -7 7 -29 42 -37 59 -4 8 2 21 15 32 27 21 30 44 5 34 -45
-18 -52 -17 -67 14 -17 32 -36 41 -36 17z"/>
<path d="M5269 7877 c-32 -12 -58 -70 -52 -114 3 -18 9 -33 14 -33 5 0 8 -3 7
-7 -8 -23 56 -73 92 -73 26 0 80 27 81 40 7 74 -9 100 -24 38 -10 -42 -32 -54
-70 -37 -45 20 -40 45 14 79 46 28 48 31 37 55 -6 13 -19 27 -29 30 -11 4 -25
12 -31 19 -9 8 -21 9 -39 3z m49 -49 c20 -20 14 -35 -19 -48 -37 -16 -54 -3
-45 34 7 28 42 36 64 14z"/>
<path d="M8551 7877 c-8 -11 -4 -20 19 -40 17 -15 30 -34 30 -42 0 -8 4 -15 8
-15 4 0 21 -26 37 -57 17 -32 36 -63 43 -71 6 -7 12 -27 12 -43 0 -19 5 -29
15 -29 8 0 15 4 15 8 0 5 12 13 28 19 l27 10 -27 11 c-37 15 -84 108 -74 146
8 31 33 34 63 9 29 -26 64 -103 57 -126 -5 -17 -3 -19 12 -12 11 4 27 10 37
12 23 7 22 33 -1 33 -12 0 -32 23 -58 70 -32 58 -43 70 -65 70 -14 0 -35 -9
-48 -21 -24 -22 -51 -19 -51 6 0 8 -4 15 -9 15 -5 0 -14 14 -21 30 -13 32 -31
38 -49 17z"/>
<path d="M4920 7790 c-8 -5 -10 -10 -4 -10 7 0 14 -10 17 -22 6 -21 7 -21 26
-4 34 31 1 62 -39 36z"/>
<path d="M5121 7784 c-60 -25 -76 -68 -45 -113 15 -21 22 -23 71 -18 64 7 83
1 83 -22 0 -39 -48 -53 -84 -26 -11 8 -23 15 -28 15 -12 0 -9 -28 4 -32 6 -2
12 -12 14 -22 2 -12 -3 -16 -18 -14 -18 3 -60 62 -87 125 -14 30 -28 36 -50
21 -27 -19 -26 -30 7 -43 37 -16 85 -104 76 -140 -6 -25 9 -35 21 -15 3 6 14
10 23 10 9 0 27 11 40 25 13 13 27 24 30 23 11 -3 55 23 75 44 16 16 17 22 6
47 -18 41 -67 62 -125 54 -44 -6 -46 -5 -42 18 2 20 10 25 41 27 28 2 37 0 37
-12 0 -9 6 -16 14 -16 19 0 13 33 -11 59 -17 18 -21 18 -52 5z"/>
<path d="M7195 7774 l-20 -15 20 -15 c44 -32 55 -45 55 -64 0 -11 -6 -20 -13
-20 -8 0 -23 -10 -34 -22 -29 -33 -50 -88 -32 -88 5 0 9 -11 9 -25 0 -14 3
-25 8 -25 4 0 16 -13 27 -29 25 -39 74 -49 115 -24 17 9 30 20 30 24 0 4 14
10 31 14 21 5 29 12 27 23 -2 10 -11 16 -21 14 -10 -2 -17 4 -17 13 0 8 -5 15
-12 15 -6 0 -9 3 -5 6 3 4 -7 26 -23 50 -17 23 -30 46 -30 50 0 4 -11 22 -26
41 -14 18 -22 33 -19 33 4 0 -3 14 -15 30 -24 34 -28 35 -55 14z m86 -154 c24
-13 59 -81 59 -114 0 -61 -76 -52 -110 13 -40 79 -13 134 51 101z"/>
<path d="M7390 7750 c-24 -24 -26 -72 -4 -95 12 -11 20 -13 29 -5 8 7 16 7 19
2 3 -6 -1 -12 -9 -16 -31 -12 -9 -86 31 -105 15 -6 24 -7 24 -1 0 6 7 10 15
10 8 0 15 5 15 10 0 6 7 10 15 10 8 0 15 7 15 15 0 9 9 15 21 15 35 0 50 29
33 62 -19 37 -28 36 -21 -2 10 -48 -14 -32 -45 30 -46 89 -94 114 -138 70z
m64 -26 c21 -8 20 -38 0 -55 -14 -11 -19 -10 -35 10 -34 41 -16 64 35 45z m56
-85 c7 -11 9 -32 6 -46 -5 -19 -12 -24 -34 -21 -31 3 -41 33 -22 67 14 27 36
27 50 0z"/>
<path d="M4812 7745 c-23 -13 -17 -25 19 -37 21 -8 140 -207 138 -232 -3 -39
1 -46 19 -39 44 16 64 63 26 63 -8 0 -17 8 -21 18 -4 9 -18 35 -33 57 -15 22
-30 47 -33 55 -4 8 -18 33 -32 55 -14 22 -28 48 -31 58 -7 20 -20 20 -52 2z"/>
<path d="M9719 7745 c-14 -7 -30 -24 -35 -37 -15 -34 2 -100 34 -136 29 -32
82 -59 82 -42 0 6 3 9 8 8 11 -4 48 25 59 47 16 30 18 68 5 91 -6 12 -9 24 -6
27 3 3 -10 13 -30 22 -20 10 -36 21 -36 26 0 14 -52 10 -81 -6z m85 -41 c14
-15 27 -31 27 -35 3 -20 5 -24 12 -36 4 -6 3 -23 -3 -37 -22 -59 -111 -12
-125 67 -13 67 39 91 89 41z"/>
<path d="M10648 7753 c-11 -3 -18 -14 -18 -27 0 -19 4 -22 23 -19 18 4 26 -3
40 -32 10 -21 17 -38 15 -39 -69 -30 -94 -65 -84 -118 8 -46 66 -108 100 -108
27 0 76 19 76 30 0 3 16 12 35 20 42 16 43 22 10 40 -14 7 -25 19 -25 27 0 7
-4 13 -8 13 -4 0 -21 26 -37 57 -17 32 -35 63 -42 70 -6 7 -15 23 -19 36 -5
17 -43 61 -48 56 -1 -1 -9 -3 -18 -6z m107 -191 c32 -48 40 -92 23 -115 -32
-43 -111 22 -117 95 -3 48 3 58 39 58 23 0 35 -8 55 -38z"/>
<path d="M8531 7729 c-62 -29 -77 -73 -40 -110 18 -18 29 -20 73 -15 57 7 70
1 74 -31 2 -16 -4 -26 -22 -34 -20 -10 -29 -8 -56 11 -38 27 -43 23 -28 -18 7
-17 9 -34 6 -38 -17 -16 -47 12 -83 80 -38 72 -47 79 -72 63 -19 -12 -16 -21
9 -32 12 -6 26 -19 32 -30 6 -11 13 -22 16 -25 15 -15 31 -60 28 -78 -1 -12 1
-22 5 -22 13 -2 67 24 67 32 0 5 7 8 15 8 8 0 15 5 15 10 0 6 7 10 15 10 27 0
72 28 77 48 8 28 -21 92 -42 92 -12 0 -19 10 -23 35 -9 53 -25 64 -66 44z m48
-38 c23 -14 5 -39 -33 -46 -50 -10 -66 6 -43 43 9 14 55 16 76 3z"/>
<path d="M8336 7732 c-3 -5 -3 -18 1 -30 4 -18 9 -20 24 -11 10 5 19 14 19 19
0 13 -38 32 -44 22z"/>
<path d="M4730 7691 c-116 -63 -155 -89 -158 -104 -2 -11 1 -15 11 -11 15 5
67 -52 67 -74 0 -7 5 -12 10 -12 6 0 10 -5 10 -11 0 -6 16 -38 36 -72 30 -51
34 -64 25 -84 -15 -32 12 -31 56 3 18 14 33 21 33 17 0 -4 4 -3 8 2 7 10 36
28 84 52 l26 14 -17 50 c-29 82 -59 98 -38 20 l12 -43 -39 -34 c-52 -45 -78
-44 -106 4 -27 44 -31 64 -16 74 16 11 56 10 56 -2 0 -5 6 -10 13 -10 8 0 14
7 14 15 0 8 -5 15 -10 15 -6 0 -8 3 -4 6 3 3 -2 14 -11 25 -9 11 -16 22 -14
25 3 5 -24 34 -32 34 -3 0 -3 -13 0 -30 6 -25 2 -31 -21 -42 -25 -11 -29 -10
-46 11 -10 13 -16 27 -13 32 3 5 0 9 -5 9 -18 0 -12 47 7 56 9 4 20 6 25 6 4
-1 7 3 7 8 0 13 56 13 81 -1 11 -5 17 -14 14 -20 -4 -5 1 -9 9 -9 9 0 16 3 16
6 0 8 -22 48 -30 54 -4 3 -11 13 -16 22 -9 17 -12 17 -44 -1z"/>
<path d="M8222 7688 c-18 -18 -15 -25 14 -32 15 -4 24 -10 21 -13 -3 -3 0 -12
8 -20 23 -22 18 -41 -15 -58 -32 -17 -49 -42 -52 -77 -2 -32 39 -118 57 -118
8 0 15 -4 15 -10 0 -19 58 -10 87 13 15 13 43 30 62 37 l35 14 -27 11 c-20 8
-48 46 -100 135 -39 68 -77 125 -82 127 -6 2 -16 -2 -23 -9z m102 -169 c30
-35 39 -64 34 -105 -6 -54 -73 -44 -107 16 -50 89 10 164 73 89z"/>
<path d="M9530 7633 c-14 -10 -37 -25 -52 -32 -32 -17 -37 -41 -8 -41 13 0 22
-9 26 -25 3 -14 10 -25 14 -25 5 0 14 -16 21 -35 7 -19 16 -35 20 -35 4 0 13
-16 20 -35 7 -19 17 -35 21 -35 13 0 9 -38 -4 -42 -8 -3 -7 -6 4 -10 17 -7 78
26 78 42 0 5 -9 10 -20 10 -10 0 -24 9 -30 19 -14 27 -13 41 3 41 13 0 40 23
67 57 16 20 22 53 10 53 -4 0 -11 10 -14 23 -20 70 -104 109 -156 70z m63 -22
c46 -18 81 -105 54 -138 -12 -16 -47 -16 -68 0 -21 16 -49 71 -49 96 0 48 16
59 63 42z"/>
<path d="M7026 7535 c-14 -14 -31 -25 -39 -25 -21 0 -40 -27 -33 -45 3 -8 9
-15 13 -14 21 4 33 -2 33 -16 0 -8 5 -15 11 -15 5 0 7 -4 4 -10 -3 -5 -1 -10
4 -10 6 0 11 -7 11 -15 0 -8 5 -15 10 -15 6 0 10 -15 10 -34 0 -44 11 -51 40
-26 13 11 27 20 32 20 4 0 8 5 8 10 0 6 -9 10 -19 10 -11 0 -23 9 -26 20 -3
11 -11 20 -16 20 -5 0 -9 7 -9 16 0 8 -7 22 -15 31 -9 9 -14 26 -11 41 2 15 5
30 5 35 1 4 12 7 25 7 33 0 86 -90 86 -146 0 -22 4 -34 8 -28 4 6 22 19 40 28
31 16 36 36 8 36 -8 0 -21 11 -30 25 -9 14 -14 25 -11 25 6 0 -4 13 -33 45 -7
8 -10 15 -6 15 4 0 -2 9 -14 20 -28 27 -56 25 -86 -5z"/>
<path d="M10282 7534 c-29 -20 -28 -32 3 -40 16 -4 25 -13 25 -25 0 -10 9 -28
20 -39 11 -11 20 -28 20 -38 0 -9 9 -23 20 -30 11 -7 20 -20 20 -30 0 -10 9
-25 20 -35 15 -13 19 -24 14 -43 -6 -24 -5 -26 17 -19 13 4 26 12 27 16 2 5
10 9 18 9 8 0 17 7 20 15 4 8 16 15 29 15 12 0 33 10 47 23 14 13 39 29 57 36
24 11 31 20 31 41 0 33 -24 59 -34 35 -3 -8 -1 -15 4 -15 6 0 10 -7 10 -15 0
-8 -4 -15 -8 -15 -14 0 -43 36 -35 43 3 4 1 7 -5 7 -7 0 -12 6 -12 14 0 8 -8
22 -17 32 -10 10 -17 20 -15 23 2 3 -11 10 -28 15 -62 18 -119 -58 -75 -100
12 -11 25 -36 28 -55 3 -18 9 -44 13 -56 5 -19 2 -23 -14 -23 -21 0 -46 23
-35 33 3 4 1 7 -5 7 -7 0 -12 6 -12 14 0 8 -6 21 -14 29 -8 8 -22 29 -31 48
-30 63 -40 79 -47 79 -5 0 -8 6 -8 13 0 6 -6 20 -14 29 -11 16 -15 16 -34 2z
m248 -59 c14 -17 7 -43 -15 -51 -26 -10 -59 39 -38 59 11 12 40 8 53 -8z m52
-80 c16 -36 -4 -78 -35 -73 -26 4 -35 44 -17 78 15 27 38 25 52 -5z"/>
<path d="M9104 7498 c-4 -7 -14 -23 -22 -36 -15 -22 -14 -23 12 -16 22 5 28 3
33 -15 3 -11 8 -21 12 -21 4 0 20 -26 36 -57 17 -32 36 -63 43 -71 15 -17 16
-44 0 -60 -6 -6 -9 -14 -7 -17 7 -6 59 18 59 28 0 4 6 7 14 7 7 0 19 7 26 15
11 13 8 15 -18 15 -28 0 -35 8 -98 120 -37 66 -71 120 -75 120 -4 0 -11 -6
-15 -12z"/>
<path d="M6642 7451 c-22 -17 -38 -71 -20 -71 6 0 8 -11 6 -25 -3 -14 -2 -25
1 -25 10 0 35 -149 27 -158 -4 -4 -13 1 -20 11 -7 9 -16 17 -19 17 -2 0 -26
20 -53 45 -26 25 -50 45 -54 45 -4 0 -13 11 -20 25 -16 29 -30 31 -71 9 -25
-12 -28 -18 -19 -30 7 -7 16 -12 20 -9 11 7 41 -24 35 -36 -4 -5 -1 -9 4 -9 6
0 11 -7 11 -15 0 -8 4 -15 9 -15 5 0 15 -16 22 -35 7 -19 16 -35 21 -35 4 0
10 -16 14 -35 3 -19 11 -35 16 -35 6 0 8 -11 6 -25 -3 -14 -2 -28 3 -31 10 -6
47 12 67 33 14 14 16 12 -33 28 -8 2 -20 16 -25 30 -6 15 -21 41 -34 58 -50
68 -36 94 17 32 16 -19 33 -35 38 -35 5 0 27 -18 50 -39 51 -50 70 -46 57 12
-12 51 -17 75 -23 107 -3 14 -9 41 -15 60 -15 53 -12 58 15 26 14 -16 25 -33
25 -38 0 -5 11 -24 25 -42 14 -18 25 -38 25 -44 0 -7 4 -12 9 -12 10 0 8 -21
-5 -54 -5 -14 -4 -17 7 -12 8 3 22 9 32 12 9 4 17 10 17 15 0 5 5 8 11 7 21
-5 21 23 0 29 -21 5 -50 47 -117 168 -29 55 -35 72 -26 86 16 25 -8 32 -36 10z"/>
<path d="M6820 7414 c-14 -21 -24 -42 -22 -46 1 -5 3 -20 4 -33 1 -14 6 -25
11 -25 4 0 6 -4 2 -9 -3 -6 12 -28 34 -50 35 -35 43 -39 68 -32 52 16 62 23
81 55 17 28 18 36 7 57 -7 13 -11 27 -9 31 3 5 0 8 -5 8 -6 0 -11 6 -11 13 -1
31 -36 57 -85 63 -49 5 -51 5 -75 -32z m118 -39 c9 -16 19 -32 22 -35 11 -11
11 -62 0 -76 -15 -17 -49 -18 -70 -1 -19 15 -53 67 -44 67 4 0 1 6 -5 14 -8
10 -8 21 -1 40 9 24 15 27 46 24 27 -2 39 -10 52 -33z"/>
<path d="M8847 7378 c-19 -10 -23 -28 -6 -28 16 0 42 -32 70 -87 13 -26 30
-54 36 -61 7 -7 16 -24 19 -38 3 -13 10 -24 15 -24 5 0 9 -13 9 -30 0 -30 21
-42 35 -20 4 6 11 8 16 5 5 -4 9 -1 9 4 0 6 8 11 18 12 10 0 5 6 -14 14 -71
31 -111 175 -49 175 17 0 66 -50 59 -61 -3 -5 -1 -9 4 -9 15 0 34 -56 27 -79
-5 -18 -4 -19 24 -8 39 14 47 35 18 46 -12 5 -33 31 -47 58 -47 90 -71 103
-116 58 -28 -28 -44 -32 -44 -10 0 8 -4 15 -8 15 -4 0 -14 15 -20 34 -14 38
-30 48 -55 34z"/>
<path d="M5544 7362 c-48 -32 -46 -128 4 -181 24 -25 83 -40 111 -28 39 16 42
20 44 66 2 33 -1 41 -13 39 -10 -2 -14 -12 -12 -31 3 -21 -2 -29 -22 -38 -48
-22 -113 29 -71 55 11 6 35 20 54 31 l36 20 -16 32 c-9 18 -19 30 -23 26 -3
-3 -6 -1 -6 5 0 13 -68 16 -86 4z m57 -32 c26 -15 24 -38 -5 -52 -45 -20 -74
12 -43 47 15 17 23 18 48 5z"/>
<path d="M10186 7337 c-28 -28 -25 -71 5 -90 23 -14 26 -67 5 -67 -8 0 -18 5
-22 11 -4 7 -26 8 -64 4 -62 -7 -76 0 -65 35 8 25 56 27 80 4 9 -9 18 -14 21
-11 4 3 -12 49 -22 65 -7 11 -75 -22 -95 -46 -20 -22 -23 -32 -15 -54 12 -34
41 -46 91 -37 57 11 75 3 75 -32 0 -27 -2 -29 -40 -29 -27 0 -43 5 -46 15 -10
25 -36 19 -28 -7 10 -32 40 -62 49 -48 4 6 13 9 21 6 7 -3 16 -1 20 5 3 6 17
15 31 20 22 8 25 14 21 49 -4 45 0 49 25 19 22 -25 52 -18 85 18 13 14 29 22
37 19 8 -3 15 -2 15 3 0 5 9 11 21 14 19 5 20 7 4 36 -16 31 -34 42 -31 19 0
-7 -3 -13 -9 -13 -5 0 -9 3 -7 8 1 4 -2 7 -7 7 -5 0 -13 10 -17 23 -10 34 -61
77 -89 77 -14 0 -36 -11 -49 -23z m74 -22 c14 -17 7 -43 -14 -51 -19 -7 -59
33 -52 52 7 18 50 18 66 -1z m48 -103 c3 -42 2 -43 -25 -40 -30 3 -39 23 -29
64 5 19 12 25 29 22 18 -2 23 -10 25 -46z"/>
<path d="M7799 7301 c-21 -17 -22 -20 -7 -34 19 -20 32 -82 20 -102 -7 -14
-12 -12 -36 10 -15 14 -32 25 -38 25 -6 0 -8 9 -5 19 6 25 -16 34 -47 20 -29
-13 -43 -49 -17 -42 14 4 44 -15 101 -65 8 -6 25 -20 37 -30 13 -9 24 -26 26
-37 1 -11 6 -25 10 -32 10 -16 -2 -43 -19 -43 -8 0 -14 5 -14 10 0 6 -4 10
-10 10 -20 0 -10 -49 11 -55 37 -12 87 62 58 85 -7 5 -19 78 -24 138 -1 18 -5
36 -9 39 -10 10 -7 83 4 83 6 0 10 5 10 10 0 16 -26 12 -51 -9z"/>
<path d="M5217 7288 c-7 -23 5 -48 23 -48 21 0 32 34 17 49 -15 15 -34 14 -40
-1z"/>
<path d="M5403 7275 c-32 -14 -53 -41 -53 -70 0 -22 60 -81 68 -68 7 11 48 18
85 15 21 -2 23 -35 2 -52 -14 -12 -31 -11 -84 6 -21 6 -22 5 -12 -14 15 -28
14 -42 -3 -42 -8 0 -31 30 -52 68 -47 84 -61 95 -89 74 -23 -17 -14 -40 14
-38 21 1 74 -89 75 -129 1 -30 16 -65 16 -37 0 7 9 12 20 12 11 0 20 5 20 10
0 6 7 10 15 10 7 0 18 6 22 13 4 7 24 20 43 27 69 28 82 68 36 116 -23 25 -56
31 -99 19 -34 -9 -52 5 -42 34 8 27 44 27 79 0 30 -24 34 -10 9 32 -19 33 -25
34 -70 14z"/>
<path d="M5110 7245 c-14 -17 -6 -46 12 -43 7 2 17 -7 23 -19 5 -13 13 -23 17
-23 5 0 8 -4 8 -10 0 -5 20 -43 46 -84 25 -42 44 -81 43 -88 -3 -25 3 -63 8
-50 2 6 11 12 19 12 8 0 14 5 14 10 0 6 6 10 14 10 8 0 17 7 20 16 3 8 2 13
-2 10 -13 -8 -49 21 -65 52 -16 31 -52 94 -78 137 -10 17 -23 40 -28 51 -12
28 -37 36 -51 19z"/>
<path d="M8627 7233 c-15 -14 -7 -43 12 -43 11 0 22 3 24 8 6 10 -28 44 -36
35z"/>
<path d="M8797 7209 c-44 -36 -48 -66 -12 -97 14 -12 25 -33 25 -46 0 -14 5
-28 10 -31 18 -11 11 -45 -9 -45 -19 0 -27 11 -68 90 -26 50 -40 62 -63 55
-27 -9 -25 -33 4 -41 13 -3 30 -18 37 -32 8 -15 18 -30 22 -33 9 -7 15 -30 17
-74 1 -16 4 -24 7 -17 2 6 11 12 18 12 8 0 22 8 32 19 10 10 35 24 55 32 38
13 112 79 90 79 -7 0 -12 7 -12 15 0 8 -13 27 -30 42 -16 14 -30 35 -30 45 0
20 -29 58 -45 58 -6 0 -27 -14 -48 -31z m64 -19 c40 -22 17 -50 -42 -50 -24 0
-29 4 -29 23 0 13 3 27 7 30 10 10 42 8 64 -3z m53 -86 c9 -4 16 -18 16 -34 0
-43 -47 -54 -87 -21 -31 26 -29 49 5 54 47 7 50 7 66 1z"/>
<path d="M4948 7147 c-85 -49 -109 -77 -69 -77 22 0 59 -56 142 -208 10 -18
10 -28 1 -42 -17 -28 3 -34 35 -12 16 11 61 38 100 61 l73 42 -14 34 c-8 18
-12 36 -8 39 3 3 0 6 -7 6 -7 0 -10 4 -7 9 7 10 -18 34 -27 25 -3 -3 -1 -19 5
-35 5 -16 7 -41 4 -54 -7 -26 -76 -77 -98 -73 -7 2 -26 24 -41 50 -25 43 -27
50 -13 63 16 17 56 20 56 5 0 -5 6 -10 13 -10 8 0 14 7 14 15 0 8 -4 15 -9 15
-4 0 -8 6 -8 14 0 7 -7 19 -15 26 -8 7 -13 16 -10 20 3 4 -2 11 -11 14 -24 9
-26 8 -19 -14 8 -26 -11 -50 -39 -50 -15 0 -28 14 -44 47 -21 41 -22 47 -8 55
9 5 18 8 21 8 3 0 13 6 21 15 25 25 79 19 98 -10 9 -14 21 -23 27 -19 14 8
-52 96 -71 93 -3 0 -44 -24 -92 -52z"/>
<path d="M7350 7185 c-13 -15 -8 -29 11 -31 5 -1 14 -2 19 -3 6 0 10 -8 10
-16 0 -8 5 -15 10 -15 6 0 10 -10 10 -23 0 -16 -9 -26 -30 -34 -18 -7 -34 -23
-41 -40 -13 -35 -3 -109 16 -117 8 -3 15 -12 15 -21 0 -8 5 -15 11 -15 7 0 17
-7 23 -16 15 -20 56 -10 91 22 14 13 29 23 33 22 4 -1 15 2 25 6 20 9 23 36 4
36 -8 0 -22 9 -32 20 -10 11 -15 20 -11 20 4 0 -2 10 -13 22 -11 11 -18 25
-15 30 3 4 0 8 -5 8 -6 0 -11 7 -11 15 0 8 -4 15 -10 15 -5 0 -10 5 -10 11 0
19 -64 119 -76 119 -6 0 -17 -7 -24 -15z m97 -156 c18 -16 42 -61 47 -91 9
-57 -43 -78 -88 -33 -25 25 -49 83 -44 106 7 35 53 44 85 18z"/>
<path d="M8505 7180 c-8 -12 2 -30 17 -30 16 0 48 -41 48 -61 0 -10 -9 -20
-20 -24 -33 -10 -60 -54 -60 -96 0 -22 4 -39 9 -39 5 0 14 -13 20 -29 21 -50
94 -68 131 -31 11 11 25 20 31 20 6 0 22 9 35 19 l24 19 -24 6 c-19 5 -43 37
-97 131 -50 87 -77 125 -90 125 -10 0 -21 -4 -24 -10z m95 -150 c28 -15 52
-72 48 -116 -3 -37 -4 -39 -36 -36 -37 3 -48 12 -74 59 -19 33 -21 83 -3 95
14 11 43 10 65 -2z"/>
<path d="M7537 7149 c-24 -30 -24 -33 -8 -60 9 -16 19 -29 23 -29 16 0 20 24
7 46 -16 31 -1 49 35 40 33 -8 33 -32 1 -66 -43 -45 -33 -130 16 -130 29 0 68
21 74 40 3 10 16 18 30 18 41 0 55 18 42 52 -14 38 -37 48 -31 14 6 -33 -23
-32 -32 1 -3 14 -10 25 -14 25 -5 0 -14 15 -21 34 -20 56 -84 63 -122 15z
m122 -83 c7 -8 11 -27 9 -43 -3 -24 -8 -28 -33 -28 -34 0 -41 17 -26 58 12 30
32 35 50 13z"/>
<path d="M7172 7060 c-10 -16 -9 -21 6 -28 9 -5 23 -7 30 -5 18 7 15 31 -6 42
-14 7 -21 5 -30 -9z"/>
<path d="M9390 6986 c-5 -13 -14 -27 -19 -31 -21 -13 -10 -24 17 -19 26 5 31
1 53 -42 13 -27 30 -55 36 -62 7 -7 16 -24 19 -38 3 -13 10 -24 15 -24 14 0
11 -48 -3 -53 -7 -2 -10 -7 -7 -11 6 -6 59 12 69 25 3 3 13 8 23 12 27 10 20
26 -10 24 -25 -2 -33 9 -98 120 -38 68 -73 123 -78 123 -4 0 -12 -11 -17 -24z"/>
<path d="M7226 6971 c-22 -24 -21 -27 14 -41 17 -7 30 -19 30 -26 0 -8 5 -14
11 -14 5 0 7 -4 4 -10 -3 -5 -2 -10 3 -10 15 0 30 -53 25 -84 l-6 -28 37 24
c41 26 44 33 16 48 -10 6 -27 27 -37 48 -9 20 -23 43 -29 50 -7 6 -15 21 -19
31 -8 27 -30 33 -49 12z"/>
<path d="M6910 6930 c-78 -45 -110 -79 -67 -72 10 2 17 -3 17 -13 0 -8 4 -15
9 -15 5 0 15 -16 22 -35 7 -19 16 -35 20 -35 4 0 13 -16 20 -35 7 -19 16 -35
20 -35 13 0 31 -60 25 -85 -8 -31 3 -32 54 -2 42 23 48 44 11 39 -16 -3 -24 3
-28 17 -3 12 -9 21 -13 21 -4 0 -13 14 -20 30 -10 24 -10 33 0 45 16 20 47 19
58 -1 6 -11 12 -13 16 -6 8 14 -19 82 -33 82 -6 0 -11 7 -11 16 0 8 -4 13 -9
9 -6 -3 -8 -15 -6 -27 10 -47 -47 -67 -67 -23 -6 14 -15 25 -19 25 -14 0 -20
51 -7 63 26 24 67 39 90 34 29 -8 68 -40 68 -56 0 -6 9 -11 19 -11 20 0 61
-44 61 -65 0 -6 9 -20 20 -30 14 -12 17 -25 13 -46 -7 -35 1 -36 44 -6 36 24
42 37 17 37 -19 0 -54 37 -54 56 0 7 -5 14 -11 16 -6 2 -13 21 -16 42 -3 34
-2 38 16 33 33 -8 44 7 22 32 l-20 23 -24 -24 c-13 -13 -38 -25 -55 -26 -27
-2 -35 4 -58 38 -15 22 -29 40 -33 40 -3 0 -44 -23 -91 -50z"/>
<path d="M9147 6879 c-21 -12 -22 -39 -2 -39 8 0 15 -7 15 -15 0 -8 4 -15 8
-15 4 0 21 -26 37 -57 17 -32 36 -63 42 -71 7 -7 16 -24 19 -38 3 -13 10 -24
15 -24 5 0 9 -7 9 -15 0 -8 -4 -15 -10 -15 -5 0 -10 -4 -10 -10 0 -5 9 -10 20
-10 11 0 20 4 20 9 0 5 9 11 20 14 25 6 26 27 2 34 -19 5 -72 96 -72 124 0 8
6 24 14 34 13 18 17 18 40 6 14 -8 26 -20 26 -26 0 -7 7 -18 15 -25 8 -7 15
-21 15 -31 0 -11 5 -19 11 -19 7 0 9 -11 5 -31 -5 -28 -4 -30 16 -23 12 3 31
15 42 25 l20 19 -21 0 c-15 0 -34 21 -69 75 -28 43 -55 75 -65 75 -9 0 -28
-11 -43 -25 -24 -22 -56 -25 -56 -5 0 4 -10 26 -23 48 -18 33 -26 38 -40 31z"/>
<path d="M5826 6845 c-53 -58 -38 -120 48 -193 l27 -23 42 20 c51 25 71 65 52
102 -13 22 -13 22 -22 -21 -7 -37 -14 -47 -37 -55 -22 -7 -30 -7 -33 3 -3 6
-11 12 -19 12 -13 0 -15 4 -18 30 -1 5 23 24 51 42 l53 33 -26 30 c-14 17 -29
30 -34 30 -5 0 -12 3 -16 8 -15 14 -45 6 -68 -18z m77 -24 c18 -2 5 -42 -17
-53 -43 -19 -57 -4 -47 55 0 4 13 6 29 3 15 -2 30 -5 35 -5z"/>
<path d="M8120 6821 c0 -5 -13 -14 -30 -21 -35 -15 -37 -23 -9 -41 26 -18 41
-109 18 -109 -18 1 -49 24 -49 38 0 5 -7 12 -15 16 -8 3 -15 15 -15 26 0 24
-3 24 -40 5 -30 -16 -43 -49 -15 -39 8 4 17 -1 21 -10 3 -9 10 -14 14 -11 5 3
12 -1 17 -8 4 -8 25 -25 45 -39 21 -13 35 -28 31 -31 -3 -4 1 -7 11 -7 11 0
19 -11 23 -32 12 -55 10 -63 -17 -64 -54 -2 -55 -3 -32 -24 29 -27 68 -26 77
3 11 32 13 57 6 57 -4 0 -8 15 -9 33 -2 17 -6 46 -9 62 -4 17 -6 42 -6 58 0
15 -4 27 -9 27 -5 0 -6 27 -3 60 2 33 2 60 0 60 -3 0 -5 -4 -5 -9z"/>
<path d="M5518 6786 c-9 -9 -14 -24 -11 -36 6 -23 12 -24 34 -7 14 11 15 16 5
36 -12 21 -14 21 -28 7z"/>
<path d="M5715 6785 c-37 -12 -70 -43 -77 -72 -8 -31 47 -86 76 -76 12 4 37 7
56 8 31 0 35 -3 38 -27 3 -22 -2 -29 -24 -34 -17 -4 -36 -1 -54 10 -39 23 -43
20 -25 -15 9 -17 14 -33 11 -36 -13 -13 -36 10 -76 79 -24 40 -44 75 -46 77
-2 2 -16 -3 -33 -10 l-29 -13 20 -18 c12 -10 26 -18 32 -18 18 0 68 -104 64
-131 -4 -32 22 -28 71 11 20 15 52 34 72 40 47 17 61 52 40 97 -10 19 -24 33
-36 34 -11 1 -42 2 -70 3 -43 1 -50 4 -50 21 0 24 43 32 75 15 29 -16 31 -11
12 30 -16 34 -19 35 -47 25z"/>
<path d="M5394 6736 c-23 -13 -15 -28 22 -40 11 -3 28 -23 39 -43 11 -21 37
-66 58 -100 29 -47 37 -69 34 -92 -6 -39 15 -41 57 -6 l30 24 -25 6 c-16 4
-34 24 -53 58 -16 29 -32 54 -35 57 -3 3 -14 21 -24 40 -57 113 -63 119 -103
96z"/>
<path d="M8916 6720 c-16 -29 -16 -30 1 -30 21 0 56 20 35 20 -7 0 -11 4 -8 8
2 4 1 13 -3 20 -4 8 -13 2 -25 -18z"/>
<path d="M9107 6719 c-56 -29 -73 -95 -29 -115 9 -4 44 -8 77 -8 60 -1 60 -1
60 -31 0 -27 -4 -30 -33 -33 -19 -2 -38 3 -48 12 -30 31 -46 15 -19 -20 20
-27 19 -44 -4 -44 -17 0 -61 47 -61 65 0 3 -14 26 -30 51 -32 46 -54 55 -64
28 -8 -21 -8 -21 13 -27 10 -2 33 -26 51 -51 24 -36 31 -56 28 -81 l-4 -33 51
25 c27 14 52 29 55 32 3 4 24 15 48 25 27 13 42 25 42 38 0 10 5 18 10 18 12
0 -1 18 -44 61 -16 17 -26 35 -22 44 3 8 1 15 -4 15 -5 0 -12 11 -16 25 -7 29
-7 29 -57 4z m56 -36 c14 -8 7 -32 -14 -43 -25 -14 -69 -5 -69 14 0 36 12 47
44 40 17 -3 34 -8 39 -11z"/>
<path d="M7642 6688 c-7 -7 -12 -20 -12 -31 0 -14 5 -17 20 -12 15 5 24 -2 40
-27 24 -40 25 -48 4 -48 -9 0 -31 -16 -50 -35 -29 -31 -32 -38 -23 -67 20 -70
38 -95 80 -112 41 -16 43 -16 78 7 20 13 51 29 70 37 l33 13 -31 17 c-29 15
-38 27 -78 102 -8 15 -19 30 -24 33 -5 4 -7 11 -4 16 4 5 1 9 -4 9 -6 0 -11 4
-11 10 0 16 -54 100 -65 100 -6 0 -16 -5 -23 -12z m104 -175 c33 -36 51 -97
34 -118 -22 -26 -67 -19 -92 16 -13 17 -23 34 -24 37 0 4 -4 14 -7 22 -26 61
41 94 89 43z"/>
<path d="M5235 6641 c-63 -37 -80 -52 -82 -71 -1 -14 0 -19 3 -12 13 28 51 -1
74 -58 7 -17 16 -30 21 -30 5 0 9 -9 9 -20 0 -11 5 -20 10 -20 6 0 10 -5 10
-11 0 -6 8 -23 19 -37 11 -16 18 -40 16 -59 -3 -37 1 -39 33 -17 12 8 22 12
22 9 0 -3 15 5 33 18 38 29 99 62 109 59 9 -2 -1 58 -12 73 -4 6 -10 22 -14
38 -3 15 -10 27 -15 27 -15 0 -22 -32 -10 -46 5 -7 9 -27 7 -45 -2 -27 -12
-39 -51 -63 l-47 -29 -20 23 c-11 13 -20 30 -20 38 0 9 -8 24 -17 35 -17 18
-17 19 2 33 24 18 43 18 61 -1 9 -8 19 -15 24 -15 13 0 -7 52 -24 65 -8 6 -15
19 -17 30 -7 32 -35 25 -31 -7 2 -20 -2 -28 -13 -28 -8 0 -15 -5 -15 -11 0
-19 -33 -5 -36 16 -2 11 -10 25 -18 31 -24 17 -19 40 13 63 25 18 78 24 91 11
10 -10 52 -31 55 -28 2 2 -8 23 -23 46 -18 27 -34 42 -47 41 -11 0 -56 -22
-100 -48z"/>
<path d="M8802 6678 c-17 -17 -15 -28 4 -28 17 0 32 -14 52 -48 17 -31 15 -42
-8 -42 -32 0 -70 -44 -70 -81 0 -54 49 -123 96 -135 22 -6 84 22 84 37 0 4 14
10 30 14 32 7 42 35 13 35 -12 0 -34 28 -62 78 -111 194 -113 196 -139 170z
m100 -163 c53 -53 57 -146 5 -144 -23 0 -69 17 -52 18 6 1 6 4 0 9 -21 14 -45
62 -45 87 0 56 50 72 92 30z"/>
<path d="M7853 6670 c-12 -5 -24 -18 -28 -29 -3 -12 -11 -21 -16 -21 -10 0 7
-35 28 -57 17 -19 29 23 12 43 -17 21 10 49 39 40 33 -11 37 -38 8 -61 -28
-23 -51 -81 -35 -91 5 -3 7 -10 4 -15 -4 -5 -1 -9 5 -9 6 0 9 -4 6 -9 -10 -16
32 -19 60 -5 14 8 33 14 40 14 8 0 14 6 14 14 0 8 11 17 24 20 30 7 41 38 24
65 -16 27 -31 27 -23 1 13 -40 -22 -20 -45 26 -24 46 -63 85 -84 83 -6 0 -21
-4 -33 -9z m96 -104 c7 -8 11 -30 9 -48 -2 -28 -7 -34 -30 -36 -16 -2 -29 1
-29 7 -1 6 -2 17 -3 24 -3 16 22 67 33 67 5 0 14 -6 20 -14z"/>
<path d="M7462 6562 c-9 -7 -8 -13 7 -26 23 -21 41 -14 41 15 0 20 -24 25 -48
11z"/>
<path d="M7197 6424 c-89 -51 -114 -72 -87 -75 6 -1 15 -3 20 -4 6 -1 15 -3
20 -4 6 0 10 -8 10 -16 0 -8 4 -15 9 -15 5 0 14 -15 22 -32 7 -18 16 -35 20
-38 3 -3 20 -30 37 -60 22 -39 29 -63 25 -83 -4 -22 -2 -26 11 -21 9 3 16 10
16 16 0 5 5 6 10 3 6 -3 10 -1 10 6 0 7 3 10 6 6 6 -6 34 16 34 27 0 3 -9 6
-21 6 -24 0 -37 12 -62 58 -31 56 -9 74 56 47 15 -6 17 -3 13 21 -3 16 -12 33
-19 39 -8 6 -17 20 -21 33 -10 31 -24 19 -19 -15 4 -23 -1 -32 -21 -43 -14 -7
-27 -11 -29 -9 -55 78 -69 119 -42 119 8 0 15 4 15 8 0 12 46 32 71 32 11 0
22 -7 25 -15 4 -8 12 -15 18 -15 7 0 19 -11 26 -25 9 -16 19 -23 29 -20 16 5
21 -2 55 -72 8 -18 19 -33 25 -33 5 0 7 -13 5 -29 -3 -16 0 -32 6 -36 5 -3 10
-3 10 2 0 4 14 14 30 22 34 15 35 34 2 39 -13 2 -24 13 -28 28 -3 13 -10 24
-14 24 -9 0 -30 55 -30 76 0 8 10 14 24 14 15 0 26 7 29 19 7 28 -32 36 -58
12 -36 -34 -61 -35 -93 -4 -16 15 -33 36 -38 45 -8 15 -20 11 -107 -38z"/>
<path d="M7510 6465 c-13 -15 -5 -39 11 -30 5 4 9 1 9 -4 0 -6 7 -11 16 -11 8
0 12 -4 9 -10 -3 -5 -1 -10 4 -10 6 0 11 -7 11 -15 0 -8 3 -15 8 -15 12 0 29
-46 26 -74 -3 -30 -2 -31 36 -11 34 18 38 31 13 39 -10 3 -23 16 -29 28 -64
130 -84 149 -114 113z"/>
<path d="M6134 6348 c-24 -11 -44 -48 -44 -79 0 -27 42 -106 60 -113 55 -22
69 -23 88 -10 11 7 22 11 25 7 3 -3 9 6 13 21 3 14 10 26 14 26 10 0 8 20 -3
38 -12 17 -27 5 -27 -22 0 -47 -50 -62 -88 -26 -12 12 -22 24 -22 29 0 4 23
20 50 35 63 34 65 52 10 89 -28 19 -45 20 -76 5z m56 -33 c16 -20 6 -43 -25
-57 -30 -13 -37 -8 -37 28 0 40 38 58 62 29z"/>
<path d="M8382 6294 c-22 -15 -22 -17 -7 -34 9 -10 14 -24 10 -29 -3 -6 -2
-11 3 -11 5 0 9 -6 9 -12 0 -7 3 -25 6 -40 7 -32 1 -34 -33 -11 -39 27 -48 39
-56 67 -3 15 -9 25 -13 24 -3 -2 -18 -10 -33 -17 -34 -17 -36 -37 -5 -45 13
-3 33 -14 45 -24 11 -10 32 -27 46 -37 14 -11 26 -25 26 -32 0 -7 6 -13 14
-13 19 0 24 -9 32 -55 5 -36 5 -37 -19 -31 -16 4 -29 0 -38 -10 -11 -14 -10
-18 6 -30 26 -20 44 -17 64 8 14 17 16 29 10 57 -5 20 -6 44 -3 54 3 10 1 23
-4 30 -15 20 -34 143 -27 176 7 35 0 38 -33 15z"/>
<path d="M5804 6275 c-7 -18 2 -45 15 -45 6 0 15 9 21 20 8 15 6 21 -10 30
-16 9 -22 8 -26 -5z"/>
<path d="M6005 6273 c-71 -36 -90 -80 -51 -118 12 -12 31 -16 78 -13 l63 3 0
-30 c0 -25 -4 -30 -28 -33 -16 -2 -39 3 -52 12 -29 19 -39 10 -20 -18 20 -27
19 -36 -2 -36 -12 0 -34 27 -61 75 -24 41 -47 75 -52 75 -22 0 -40 -14 -40
-32 0 -10 5 -16 10 -13 26 16 96 -98 87 -142 -2 -13 -2 -23 1 -23 15 0 112 52
112 60 0 6 3 9 8 8 16 -5 70 32 75 51 7 29 -26 84 -54 92 -13 3 -34 2 -47 -3
-35 -12 -59 -10 -66 7 -16 41 37 61 81 30 25 -17 25 -5 2 37 -14 26 -15 26
-44 11z"/>
<path d="M5690 6230 l-25 -19 27 -10 c15 -6 38 -27 50 -48 13 -22 29 -48 36
-58 6 -11 18 -31 24 -45 7 -14 17 -28 22 -32 8 -5 13 -37 15 -96 1 -10 5 -10
17 2 8 9 19 16 24 16 5 0 16 8 26 17 16 17 16 18 -6 23 -21 5 -44 33 -67 81
-20 41 -109 189 -113 189 -3 0 -16 -9 -30 -20z"/>
<path d="M7942 6184 c-27 -19 -28 -34 -3 -34 21 0 51 -40 51 -67 0 -10 -14
-24 -33 -33 -20 -9 -33 -24 -35 -37 -2 -13 -7 -23 -11 -23 -4 0 -7 -9 -8 -20
-1 -11 2 -20 8 -20 5 0 8 -3 7 -7 -3 -13 25 -63 34 -63 5 0 6 -5 3 -10 -4 -6
-3 -9 2 -8 4 1 18 -3 30 -10 23 -13 73 -13 73 0 0 4 7 8 15 8 8 0 15 7 15 15
0 8 8 15 18 15 9 0 26 7 37 16 19 14 19 15 -3 21 -15 4 -38 32 -68 84 -25 43
-50 81 -55 85 -5 3 -9 14 -9 25 0 10 -4 19 -10 19 -5 0 -10 6 -10 13 0 6 -6
20 -14 29 -11 16 -15 16 -34 2z m71 -153 c26 -10 67 -83 67 -119 0 -31 -41
-49 -76 -34 -14 7 -22 17 -19 22 3 6 1 10 -5 10 -17 0 -40 64 -33 91 10 38 26
45 66 30z"/>
<path d="M5536 6137 c-89 -52 -115 -77 -79 -77 11 0 30 -12 44 -27 13 -14 18
-23 10 -18 -14 8 26 -54 42 -66 5 -3 8 -8 7 -10 -3 -8 14 -45 32 -69 14 -18
18 -33 13 -58 l-6 -33 68 37 c37 20 80 45 95 56 14 10 31 18 37 18 16 0 13 19
-9 65 -11 22 -19 46 -20 53 0 6 -4 12 -9 12 -5 0 -8 -26 -6 -58 l4 -58 -42
-27 c-22 -15 -48 -27 -57 -27 -16 0 -60 77 -60 105 0 19 48 31 63 16 6 -6 17
-11 25 -11 10 0 8 8 -7 29 -11 15 -18 31 -14 35 3 3 1 6 -5 6 -7 0 -12 7 -12
15 0 8 -5 15 -11 15 -5 0 -7 6 -3 13 5 8 4 9 -4 2 -6 -5 -12 -23 -14 -40 -2
-24 -8 -31 -29 -33 -22 -3 -30 4 -48 38 -11 22 -21 45 -21 49 0 15 69 51 96
51 14 0 35 -11 48 -25 13 -13 26 -22 29 -19 7 8 -46 93 -58 93 -5 0 -50 -23
-99 -52z"/>
<path d="M8122 6145 c-31 -39 -8 -105 28 -83 17 11 17 12 -1 32 -11 11 -19 24
-19 28 0 14 28 21 55 14 32 -8 30 -31 -7 -69 -20 -19 -28 -37 -28 -62 0 -19 5
-35 10 -35 6 0 10 -6 10 -14 0 -24 68 -11 91 18 14 17 30 26 50 26 24 0 29 4
29 23 -1 27 -29 79 -31 57 -1 -8 -1 -18 0 -22 0 -5 -5 -8 -12 -8 -8 0 -22 17
-33 38 -10 20 -22 39 -26 40 -5 2 -8 10 -8 17 0 13 -30 25 -67 25 -12 0 -30
-11 -41 -25z m128 -101 c20 -51 -35 -91 -60 -43 -9 16 -8 26 5 45 20 31 43 31
55 -2z"/>
<path d="M7756 6054 c-4 -9 -1 -23 6 -31 10 -13 15 -12 31 8 18 22 18 23 0 30
-27 11 -30 10 -37 -7z"/>
<path d="M7500 5926 c-52 -30 -96 -58 -98 -64 -1 -5 9 -12 22 -16 16 -4 28
-16 32 -31 3 -14 10 -25 14 -25 5 0 14 -16 21 -35 7 -19 16 -35 19 -35 3 0 19
-25 35 -56 29 -53 29 -56 11 -69 -17 -13 -18 -15 -2 -21 10 -4 25 1 37 12 12
11 22 17 23 15 2 -7 46 23 46 31 0 5 -15 8 -34 8 -23 0 -35 5 -39 18 -3 9 -14
29 -24 44 -17 26 -17 29 0 45 14 15 22 16 47 6 18 -7 32 -7 36 -2 3 5 0 9 -5
9 -6 0 -11 7 -11 15 0 8 -3 15 -8 15 -4 0 -13 14 -20 30 -17 37 -31 39 -24 3
5 -26 -17 -53 -42 -53 -11 0 -66 83 -66 100 0 14 66 50 93 50 17 0 38 -13 60
-35 19 -19 42 -35 51 -35 9 0 21 -10 26 -22 6 -13 21 -42 34 -65 14 -25 22
-53 20 -70 -2 -15 -1 -22 2 -15 3 6 12 12 20 12 8 0 14 4 14 9 0 5 11 12 25
15 33 8 32 26 -1 26 -17 0 -28 6 -31 20 -3 11 -8 20 -12 20 -11 0 -41 68 -41
90 0 14 7 20 24 20 23 0 41 22 29 34 -12 11 -51 6 -62 -8 -7 -8 -26 -18 -42
-21 -33 -7 -49 5 -73 57 l-12 28 -94 -54z"/>
<path d="M7807 5962 c-22 -24 -21 -32 1 -32 18 0 62 -49 62 -69 0 -5 5 -11 12
-13 7 -3 12 -21 12 -41 0 -21 6 -39 13 -41 7 -3 13 -1 13 5 0 5 12 14 28 20
l27 11 -28 14 c-15 8 -25 19 -22 24 4 6 2 10 -3 10 -5 0 -20 21 -33 48 -19 38
-54 82 -64 82 -1 0 -9 -8 -18 -18z"/>
<path d="M6450 5865 c0 -6 -10 -15 -22 -20 -29 -13 -57 -65 -48 -90 19 -58 36
-83 68 -104 32 -21 39 -22 75 -11 24 7 41 19 44 31 3 10 8 19 12 19 13 0 10
39 -4 50 -11 10 -15 6 -20 -17 -12 -50 -14 -53 -48 -53 -59 0 -80 51 -29 73
15 7 37 19 49 27 21 14 21 15 5 42 -9 16 -28 32 -42 35 -14 3 -28 11 -32 17
-5 7 -8 7 -8 1z m24 -51 c34 -13 5 -63 -36 -64 -13 0 -18 8 -18 28 0 41 15 51
54 36z"/>
<path d="M6287 5766 c-21 -13 -43 -28 -49 -34 -16 -16 -13 -60 7 -82 16 -17
28 -19 82 -16 56 5 63 3 63 -14 0 -52 -49 -70 -85 -30 -25 28 -36 15 -18 -21
8 -17 13 -33 9 -36 -9 -9 -36 6 -44 25 -14 34 -73 132 -81 132 -3 0 -17 -7
-29 -16 -25 -17 -21 -34 8 -34 21 0 82 -91 79 -118 -5 -51 -1 -53 39 -30 20
12 62 35 92 51 61 31 72 48 58 90 -16 44 -44 58 -105 50 -52 -6 -53 -5 -53 21
0 23 4 26 34 26 18 0 39 -7 46 -15 7 -8 16 -12 21 -10 9 6 -22 65 -34 65 -5 0
-5 5 -2 10 8 13 7 13 -38 -14z"/>
<path d="M6097 5774 c-4 -4 -7 -16 -7 -26 0 -14 6 -19 23 -16 14 2 22 10 22
23 0 20 -25 32 -38 19z"/>
<path d="M5982 5728 c-19 -19 -14 -36 11 -40 12 -2 26 -13 32 -25 5 -13 13
-23 17 -23 5 0 8 -7 8 -15 0 -9 9 -25 20 -37 10 -12 17 -25 14 -30 -3 -4 -1
-8 4 -8 13 0 42 -68 42 -100 0 -33 15 -48 24 -24 3 8 10 12 16 9 5 -3 10 -1
10 4 0 6 7 11 15 11 23 0 18 19 -8 29 -16 6 -44 45 -83 113 -32 57 -61 105
-64 108 -4 3 -9 13 -13 23 -7 20 -28 22 -45 5z"/>
<path d="M5818 5628 c-87 -49 -114 -80 -63 -70 18 3 25 0 25 -12 0 -9 5 -16
10 -16 6 0 10 -6 10 -14 0 -8 6 -21 13 -28 6 -7 25 -39 41 -71 16 -31 33 -60
38 -63 5 -4 7 -22 3 -40 -6 -32 6 -47 20 -24 4 6 10 8 14 5 5 -2 16 4 26 15
10 11 22 17 26 14 5 -3 9 0 9 5 0 6 5 11 11 11 6 0 24 9 40 21 16 11 29 17 29
14 0 -4 7 0 15 9 14 13 13 21 -6 68 -30 77 -38 79 -36 8 2 -62 1 -64 -32 -87
-35 -23 -81 -31 -81 -13 0 6 0 12 0 15 0 3 -9 14 -20 25 -29 29 -26 68 5 76
17 4 32 1 44 -10 36 -33 31 11 -7 52 -7 7 -10 17 -8 21 3 4 -4 12 -15 19 -17
11 -19 9 -19 -22 0 -22 -6 -36 -16 -40 -25 -10 -44 -7 -44 7 0 6 -9 23 -20 37
-23 29 -26 60 -6 60 8 0 16 5 18 11 2 6 24 13 48 16 37 4 48 1 64 -16 26 -28
38 -26 24 4 -6 14 -15 25 -20 25 -5 0 -7 4 -3 9 5 10 -25 32 -42 30 -4 0 -47
-23 -95 -51z"/>
<path d="M6713 5338 c-21 -10 -34 -31 -32 -52 0 -5 -5 -12 -11 -16 -20 -12 39
-109 80 -130 46 -23 48 -23 66 -5 9 8 22 15 30 15 8 0 14 7 14 15 0 8 4 15 10
15 6 0 6 9 0 24 -5 13 -6 27 -2 31 4 4 1 6 -7 3 -8 -2 -16 -15 -18 -28 -7 -48
-48 -63 -85 -32 -28 23 -22 38 27 69 51 32 54 42 23 75 -26 26 -62 32 -95 16z
m45 -24 c28 -8 29 -38 0 -58 -35 -25 -48 -20 -48 17 0 47 6 52 48 41z"/>
<path d="M6387 5273 c-12 -11 -8 -34 8 -49 8 -9 15 -11 15 -5 0 6 6 11 14 11
11 0 12 5 3 25 -12 24 -27 31 -40 18z"/>
<path d="M6600 5270 c0 -5 -6 -10 -14 -10 -23 0 -73 -47 -71 -67 0 -11 8 -29
17 -42 15 -22 22 -23 69 -18 73 9 101 -10 76 -50 -13 -20 -59 -15 -85 10 l-25
22 5 -25 c3 -14 9 -33 13 -44 6 -14 4 -17 -11 -14 -10 2 -35 32 -57 68 -21 36
-42 71 -46 79 -7 11 -11 11 -30 0 -22 -15 -25 -43 -3 -45 6 -1 16 -2 21 -3 14
-2 61 -102 61 -131 0 -31 24 -36 41 -9 5 8 9 10 9 4 0 -5 6 -3 13 6 10 13 38
29 57 33 21 5 70 43 71 56 4 47 -5 63 -48 87 -15 9 -31 9 -55 3 -52 -15 -60
-13 -56 18 2 22 9 28 33 30 19 3 33 -2 42 -14 22 -30 28 -5 8 31 -17 34 -35
46 -35 25z"/>
<path d="M6278 5229 c-25 -14 -24 -49 1 -42 15 4 28 -10 61 -69 23 -40 50 -84
58 -98 19 -29 19 -29 21 -75 l1 -35 35 18 c39 20 53 42 26 42 -17 0 -49 47
-141 213 -34 61 -36 62 -62 46z"/>
<path d="M6175 5164 c-11 -8 -50 -32 -88 -52 -43 -24 -66 -42 -64 -52 1 -9 11
-14 25 -12 17 3 26 -5 38 -30 8 -18 26 -51 39 -73 14 -22 29 -50 34 -62 5 -11
15 -24 21 -28 6 -4 11 -19 10 -33 -4 -51 -2 -54 28 -34 46 33 127 77 135 74 4
-1 10 5 13 13 4 8 12 15 20 15 11 0 12 4 4 18 -12 21 -33 74 -34 86 -1 5 -7
11 -13 14 -16 5 -17 -22 -2 -50 16 -30 -5 -71 -51 -97 -21 -11 -44 -19 -52
-16 -20 8 -61 92 -54 110 7 18 63 20 69 3 4 -10 7 -10 18 0 10 9 10 12 0 12
-7 0 -9 5 -6 10 3 6 1 10 -4 10 -6 0 -11 6 -11 13 -1 6 -9 22 -19 35 -23 27
-47 31 -32 5 12 -23 -4 -53 -28 -53 -20 0 -55 33 -44 43 3 4 1 7 -5 7 -19 0
-24 39 -8 56 9 8 16 13 16 9 0 -4 7 1 16 9 22 22 71 20 96 -4 46 -42 41 -3 -5
48 -24 26 -35 27 -62 6z"/>
</g>
</svg>
